<svg width="24" height="24" viewBox="0 0 24 24" fill="none" xmlns="http://www.w3.org/2000/svg">
<rect x="-0.000976562" width="24" height="24" rx="12" fill="#F2EEF9"/>
<path d="M20 17.277C19.5624 18.2457 19.3538 18.6782 18.7897 19.5344C18.0044 20.7295 16.8978 22.2192 15.5257 22.2319C14.3065 22.2432 13.9929 21.4389 12.3388 21.4478C10.6846 21.4566 10.3381 22.2458 9.11895 22.2345C7.74681 22.2218 6.69841 20.8774 5.9118 19.6811C3.71637 16.3373 3.4862 12.4144 4.84064 10.329C5.80304 8.84555 7.32189 7.97926 8.75094 7.97926C10.2053 7.97926 11.1184 8.77599 12.321 8.77599C13.4871 8.77599 14.1978 7.978 15.8798 7.978C17.1507 7.978 18.4976 8.66976 19.4562 9.86486C16.3135 11.5886 16.8245 16.0768 20 17.277ZM15.293 5.41329C14.5532 6.36178 13.2809 7.09654 12.0504 7.0586C11.8266 5.83568 12.4032 4.57736 13.1013 3.72878C13.8715 2.7942 15.1893 2.07714 16.3161 2C16.507 3.2773 15.9835 4.52803 15.293 5.41329Z" fill="#9A83B7"/>
</svg>
