<svg width="119" height="14" viewBox="0 0 119 14" fill="none" xmlns="http://www.w3.org/2000/svg">
<path fill-rule="evenodd" clip-rule="evenodd" d="M43.5828 3.87256C46.3332 3.87256 47.7436 5.91436 47.7436 8.73064C47.7436 11.6173 46.4037 13.5887 43.5828 13.5887C40.6914 13.5887 39.422 11.5469 39.422 8.73064C39.3514 5.98477 40.7619 3.87256 43.5828 3.87256ZM43.5828 11.7581C44.3585 11.7581 44.6406 11.1245 44.6406 8.73064C44.6406 6.54803 44.4291 5.77355 43.5828 5.77355C42.7365 5.77355 42.5249 6.54803 42.5249 8.73064C42.4544 11.0541 42.807 11.7581 43.5828 11.7581Z" fill="white"/>
<path fill-rule="evenodd" clip-rule="evenodd" d="M49.6481 6.26623H48.4492V4.22442H49.6481V3.16832C49.6481 0.844884 50.7765 0 52.7511 0C53.3153 0 53.8089 0.0704076 54.2321 0.140815V2.46425C54.091 2.39384 53.8795 2.39384 53.6679 2.39384C52.8921 2.39384 52.6101 2.74587 52.6101 3.30913V4.22442H54.2321V6.26623H52.6101V13.4477H49.6481V6.26623Z" fill="white"/>
<path fill-rule="evenodd" clip-rule="evenodd" d="M14.8095 6.75915C14.8095 6.1959 14.5979 5.84386 14.0337 5.84386C13.258 5.84386 13.0464 6.47752 13.0464 7.04078L10.4371 6.47752C10.7897 4.71735 12.4822 3.94287 14.1748 3.94287C15.9378 3.94287 17.842 4.71735 17.842 6.75915V11.8989C17.842 12.955 17.983 13.2366 18.124 13.3774H15.0211C14.9505 13.0958 14.9505 12.6733 14.9505 12.5325C14.4569 13.0254 13.5401 13.5886 12.6938 13.5886C11.2128 13.5886 10.0845 12.5325 10.0845 10.8428C10.155 8.44892 12.8349 7.67444 14.8095 7.46322V6.75915ZM14.8095 8.94177C13.7516 9.01218 12.9759 9.43462 12.9759 10.6315C12.9759 11.2652 13.3285 11.6172 13.8927 11.6172C14.2453 11.6172 14.5979 11.406 14.8095 11.054V8.94177Z" fill="white"/>
<path fill-rule="evenodd" clip-rule="evenodd" d="M22.4968 6.82965V13.4479H19.4644V4.15419H22.3558L22.4263 5.06948C23.061 4.43582 23.9073 3.87256 25.0356 3.87256C26.3756 3.87256 27.0808 4.78785 27.0808 6.05518V13.3775H24.0483V6.97047C24.0483 6.47762 23.8368 6.19599 23.3431 6.19599C23.1315 6.2664 22.7789 6.40721 22.4968 6.82965Z" fill="white"/>
<path fill-rule="evenodd" clip-rule="evenodd" d="M28.9849 0.281738H32.0173V6.97041H32.0879L34.2741 4.15413H37.236L34.6972 6.97041L37.236 13.4479H34.133L32.652 9.36425H32.5815L32.0173 10.0683V13.4479H28.9849V0.281738Z" fill="white"/>
<path fill-rule="evenodd" clip-rule="evenodd" d="M6.84069 6.54796C8.25114 7.04081 9.30898 8.16733 9.30898 9.85709C9.30898 12.1101 7.54591 13.3774 5.0071 13.3774H0V0.281738H5.14815C7.47539 0.281738 9.02689 1.68988 9.02689 3.45005C9.02689 5.21023 7.82801 6.05511 6.91121 6.47756V6.54796H6.84069ZM3.10299 10.9836H4.30188C5.07762 10.9836 5.99442 10.6316 5.99442 9.36424C5.99442 8.37855 5.35971 7.74488 4.30188 7.74488H3.10299V10.9836ZM3.10299 5.49186H4.23135C5.43024 5.49186 5.85337 4.85819 5.85337 4.08372C5.85337 2.81639 5.0071 2.60517 4.23135 2.60517H3.03247V5.49186H3.10299Z" fill="white"/>
<path fill-rule="evenodd" clip-rule="evenodd" d="M114.881 6.75915C114.881 6.1959 114.599 5.84386 114.106 5.84386C113.4 5.84386 113.189 6.47752 113.118 7.04078L110.509 6.47752C110.862 4.71735 112.554 3.94287 114.247 3.94287C116.01 3.94287 117.914 4.71735 117.914 6.75915V11.8989C117.914 12.955 118.055 13.2366 118.126 13.3774H115.093C115.023 13.0958 115.023 12.6733 115.023 12.5325C114.529 13.0254 113.612 13.5886 112.695 13.5886C111.214 13.5886 110.086 12.5325 110.086 10.8428C110.156 8.44892 112.907 7.67444 114.881 7.46322V6.75915ZM114.881 8.94177C113.824 9.01218 113.048 9.43462 113.048 10.6315C113.048 11.2652 113.4 11.6172 113.894 11.6172C114.247 11.6172 114.599 11.406 114.881 11.054V8.94177Z" fill="white"/>
<path fill-rule="evenodd" clip-rule="evenodd" d="M84.1333 9.43471C84.0628 10.2092 84.3449 11.6173 85.5438 11.6173C86.249 11.6173 86.8837 11.0541 87.0248 10.35L89.0699 11.0541C88.9289 11.4765 88.0121 13.5887 85.3322 13.5887C82.4408 13.5887 81.1714 11.2653 81.1714 8.73064C81.1714 6.12558 82.5818 3.87256 85.3322 3.87256C88.2236 3.87256 89.211 6.3368 89.211 8.80105V9.43471H84.1333ZM86.3901 7.67454C86.3901 6.82965 86.3195 5.77355 85.2617 5.77355C84.4154 5.77355 84.0628 6.82965 84.1333 7.67454H86.3901Z" fill="white"/>
<path fill-rule="evenodd" clip-rule="evenodd" d="M97.1802 4.15381H100.142V13.4475H97.1802V4.15381Z" fill="white"/>
<path fill-rule="evenodd" clip-rule="evenodd" d="M97.1802 0.281738H100.142V2.9572H97.1802V0.281738Z" fill="white"/>
<path fill-rule="evenodd" clip-rule="evenodd" d="M106.771 7.60404C106.771 7.252 106.771 6.75915 106.63 6.40712C106.489 6.05508 106.278 5.77345 105.784 5.77345C104.797 5.77345 104.656 6.97037 104.656 8.87137C104.656 10.9132 105.008 11.6172 105.784 11.6172C106.842 11.6172 106.912 10.5611 106.912 9.85706L109.24 10.2091C109.028 12.4621 107.688 13.659 105.502 13.659C102.822 13.659 101.412 11.3356 101.412 9.01218C101.412 6.47752 102.822 3.94287 105.643 3.94287C108.816 3.94287 109.31 6.68875 109.31 7.67444H106.771V7.60404Z" fill="white"/>
<path fill-rule="evenodd" clip-rule="evenodd" d="M59.4506 0.281738H63.823L66.5734 13.3774H63.3999L62.9062 10.702H59.8738L59.2391 13.3774H56.3477L59.4506 0.281738ZM60.2969 8.44895H62.4831L61.5663 3.09802H61.4958L60.2969 8.44895Z" fill="white"/>
<path fill-rule="evenodd" clip-rule="evenodd" d="M90.3394 4.15419H93.2308V5.35111H93.3013C93.936 4.36541 95.0644 3.87256 96.1927 3.87256V6.90006C95.8401 6.75925 95.4875 6.68884 94.9939 6.68884C94.2181 6.68884 93.6539 6.97047 93.3718 7.39291V13.3775H90.3394V4.15419Z" fill="white"/>
<path fill-rule="evenodd" clip-rule="evenodd" d="M75.177 6.82965V13.4479H72.215V7.11128C72.215 6.61843 72.074 6.2664 71.5098 6.2664C71.2277 6.2664 70.7341 6.47762 70.5225 6.82965V13.4479H67.5605V4.15419H70.452L70.5225 5.06948C71.1572 4.43582 72.1445 3.87256 73.2024 3.87256C74.1191 3.87256 74.7539 4.36541 75.0359 5.06948H75.1065C75.6001 4.50622 76.5169 3.87256 77.7158 3.87256C78.9852 3.87256 79.8315 4.64704 79.8315 5.98477V13.3775H76.8695V7.04087C76.8695 6.54803 76.7285 6.19599 76.1643 6.19599C75.8117 6.2664 75.3886 6.54803 75.177 6.82965Z" fill="white"/>
</svg>
