<svg width="20" height="20" viewBox="0 0 20 20" fill="none" xmlns="http://www.w3.org/2000/svg">
<path d="M3.66667 17.3333C3.48986 17.3333 3.32029 17.2631 3.19526 17.1381C3.07024 17.013 3 16.8435 3 16.6667V3.33333C3 3.15652 3.07024 2.98695 3.19526 2.86193C3.32029 2.7369 3.48986 2.66667 3.66667 2.66667C3.84348 2.66667 4.01305 2.7369 4.13807 2.86193C4.2631 2.98695 4.33333 3.15652 4.33333 3.33333V16.6667C4.33333 16.8435 4.2631 17.013 4.13807 17.1381C4.01305 17.2631 3.84348 17.3333 3.66667 17.3333Z" fill="#9689A6"/>
<path d="M15.6667 0H7.66667C7.13623 0 6.62753 0.210714 6.25245 0.585786C5.87738 0.960859 5.66667 1.46957 5.66667 2V7.33333C5.66667 7.86377 5.87738 8.37247 6.25245 8.74755C6.62753 9.12262 7.13623 9.33333 7.66667 9.33333H15.6667C16.1971 9.33333 16.7058 9.12262 17.0809 8.74755C17.456 8.37247 17.6667 7.86377 17.6667 7.33333V2C17.6667 1.46957 17.456 0.960859 17.0809 0.585786C16.7058 0.210714 16.1971 0 15.6667 0ZM12.3333 6.66667H9C8.82319 6.66667 8.65362 6.59643 8.5286 6.4714C8.40357 6.34638 8.33333 6.17681 8.33333 6C8.33333 5.82319 8.40357 5.65362 8.5286 5.5286C8.65362 5.40357 8.82319 5.33333 9 5.33333H12.3333C12.5101 5.33333 12.6797 5.40357 12.8047 5.5286C12.9298 5.65362 13 5.82319 13 6C13 6.17681 12.9298 6.34638 12.8047 6.4714C12.6797 6.59643 12.5101 6.66667 12.3333 6.66667ZM14.3333 4H9C8.82319 4 8.65362 3.92976 8.5286 3.80474C8.40357 3.67971 8.33333 3.51014 8.33333 3.33333C8.33333 3.15652 8.40357 2.98695 8.5286 2.86193C8.65362 2.7369 8.82319 2.66667 9 2.66667H14.3333C14.5101 2.66667 14.6797 2.7369 14.8047 2.86193C14.9298 2.98695 15 3.15652 15 3.33333C15 3.51014 14.9298 3.67971 14.8047 3.80474C14.6797 3.92976 14.5101 4 14.3333 4Z" fill="#9689A6"/>
<path d="M15.6667 10.6667H7.66667C7.13623 10.6667 6.62753 10.8774 6.25245 11.2525C5.87738 11.6275 5.66667 12.1362 5.66667 12.6667V18C5.66667 18.5304 5.87738 19.0391 6.25245 19.4142C6.62753 19.7893 7.13623 20 7.66667 20H15.6667C16.1971 20 16.7058 19.7893 17.0809 19.4142C17.456 19.0391 17.6667 18.5304 17.6667 18V12.6667C17.6667 12.1362 17.456 11.6275 17.0809 11.2525C16.7058 10.8774 16.1971 10.6667 15.6667 10.6667ZM12.3333 17.3333H9C8.82319 17.3333 8.65362 17.2631 8.5286 17.1381C8.40357 17.013 8.33333 16.8435 8.33333 16.6667C8.33333 16.4899 8.40357 16.3203 8.5286 16.1953C8.65362 16.0702 8.82319 16 9 16H12.3333C12.5101 16 12.6797 16.0702 12.8047 16.1953C12.9298 16.3203 13 16.4899 13 16.6667C13 16.8435 12.9298 17.013 12.8047 17.1381C12.6797 17.2631 12.5101 17.3333 12.3333 17.3333ZM14.3333 14.6667H9C8.82319 14.6667 8.65362 14.5964 8.5286 14.4714C8.40357 14.3464 8.33333 14.1768 8.33333 14C8.33333 13.8232 8.40357 13.6536 8.5286 13.5286C8.65362 13.4036 8.82319 13.3333 9 13.3333H14.3333C14.5101 13.3333 14.6797 13.4036 14.8047 13.5286C14.9298 13.6536 15 13.8232 15 14C15 14.1768 14.9298 14.3464 14.8047 14.4714C14.6797 14.5964 14.5101 14.6667 14.3333 14.6667Z" fill="#9689A6"/>
</svg>
