<svg width="16" height="16" viewBox="0 0 16 16" fill="none" xmlns="http://www.w3.org/2000/svg">
<path d="M12.724 4.00051C12.4019 4.00978 12.0961 4.14257 11.8713 4.37074C9.9086 6.3144 8.11666 8.22025 6.23187 10.1222L4.01616 8.36675C3.88891 8.26614 3.74286 8.19128 3.58633 8.14645C3.42981 8.10162 3.26588 8.08769 3.10391 8.10547C2.94194 8.12325 2.7851 8.17238 2.64235 8.25006C2.49959 8.32773 2.37372 8.43243 2.27192 8.55818C2.17011 8.68393 2.09437 8.82826 2.04902 8.98294C2.00367 9.13762 1.98959 9.29961 2.0076 9.45966C2.0256 9.61971 2.07533 9.77469 2.15395 9.91575C2.23257 10.0568 2.33854 10.1812 2.4658 10.2818L5.56651 12.733C5.80564 12.9212 6.10671 13.0156 6.41191 12.9979C6.71712 12.9802 7.00497 12.8518 7.22022 12.6372C9.45067 10.4284 11.4489 8.25898 13.6283 6.10063C13.8063 5.92805 13.9276 5.70646 13.9762 5.46477C14.0248 5.22309 13.9986 4.97253 13.901 4.74579C13.8033 4.51905 13.6388 4.32665 13.4288 4.1937C13.2189 4.06075 12.9732 3.99343 12.724 4.00051Z" fill="white"/>
</svg>
