<svg width="20" height="20" viewBox="0 0 20 20" fill="none" xmlns="http://www.w3.org/2000/svg">
<path fill-rule="evenodd" clip-rule="evenodd" d="M10 20C15.5228 20 20 15.5228 20 10C20 4.47715 15.5228 0 10 0C4.47715 0 0 4.47715 0 10C0 15.5228 4.47715 20 10 20ZM8.58577 7.17156C8.19524 6.78103 7.56208 6.78103 7.17156 7.17156C6.78103 7.56208 6.78103 8.19524 7.17156 8.58577L8.58577 9.99998L7.17156 11.4142C6.78103 11.8047 6.78103 12.4379 7.17156 12.8284C7.56208 13.2189 8.19524 13.2189 8.58577 12.8284L9.99998 11.4142L11.4142 12.8284C11.8047 13.2189 12.4379 13.2189 12.8284 12.8284C13.2189 12.4379 13.2189 11.8047 12.8284 11.4142L11.4142 9.99998L12.8284 8.58577C13.2189 8.19524 13.2189 7.56208 12.8284 7.17156C12.4379 6.78103 11.8047 6.78103 11.4142 7.17156L9.99998 8.58577L8.58577 7.17156Z" fill="#6DB5D1"/>
</svg>
