<svg width="20" height="20" viewBox="0 0 20 20" fill="none" xmlns="http://www.w3.org/2000/svg">
<path d="M11.4144 7.17156C11.805 6.78103 12.4381 6.78103 12.8287 7.17156C13.2192 7.56208 13.2192 8.19524 12.8287 8.58577L8.58601 12.8284C8.19549 13.2189 7.56232 13.2189 7.1718 12.8284C6.78128 12.4379 6.78128 11.8047 7.1718 11.4142L11.4144 7.17156Z" fill="#63517A"/>
<path d="M7.1718 7.17156C7.56232 6.78103 8.19549 6.78103 8.58601 7.17156L12.8287 11.4142C13.2192 11.8047 13.2192 12.4379 12.8287 12.8284C12.4381 13.2189 11.805 13.2189 11.4144 12.8284L7.1718 8.58577C6.78128 8.19524 6.78128 7.56208 7.1718 7.17156Z" fill="#63517A"/>
</svg>
