<svg width="21" height="20" viewBox="0 0 21 20" fill="none" xmlns="http://www.w3.org/2000/svg">
<path d="M3.5 6C4.05228 6 4.5 5.55228 4.5 5C4.5 4.44772 4.05228 4 3.5 4C2.94771 4 2.5 4.44772 2.5 5C2.5 5.55228 2.94771 6 3.5 6Z" fill="#9689A6"/>
<path d="M3 10C3.27614 10 3.5 9.77614 3.5 9.5C3.5 9.22386 3.27614 9 3 9C2.72386 9 2.5 9.22386 2.5 9.5C2.5 9.77614 2.72386 10 3 10Z" fill="#9689A6"/>
<path d="M6.5 2C7.05228 2 7.5 1.55228 7.5 1C7.5 0.447715 7.05228 0 6.5 0C5.94771 0 5.5 0.447715 5.5 1C5.5 1.55228 5.94771 2 6.5 2Z" fill="#9689A6"/>
<path d="M18.5 14C19.0523 14 19.5 13.5523 19.5 13C19.5 12.4477 19.0523 12 18.5 12C17.9477 12 17.5 12.4477 17.5 13C17.5 13.5523 17.9477 14 18.5 14Z" fill="#9689A6"/>
<path d="M19.5 10C20.0523 10 20.5 9.55229 20.5 9C20.5 8.44771 20.0523 8 19.5 8C18.9477 8 18.5 8.44771 18.5 9C18.5 9.55229 18.9477 10 19.5 10Z" fill="#9689A6"/>
<path d="M15 2.99731C15.2761 2.99731 15.5 2.77346 15.5 2.49731C15.5 2.22117 15.2761 1.99731 15 1.99731C14.7239 1.99731 14.5 2.22117 14.5 2.49731C14.5 2.77346 14.7239 2.99731 15 2.99731Z" fill="#9689A6"/>
<path d="M10 18C10.2761 18 10.5 17.7761 10.5 17.5C10.5 17.2239 10.2761 17 10 17C9.72386 17 9.5 17.2239 9.5 17.5C9.5 17.7761 9.72386 18 10 18Z" fill="#9689A6"/>
<path d="M18.5039 6.99893C19.6085 6.99893 20.5039 6.1035 20.5039 4.99893C20.5039 3.89436 19.6085 2.99893 18.5039 2.99893C17.3993 2.99893 16.5039 3.89436 16.5039 4.99893C16.5039 6.1035 17.3993 6.99893 18.5039 6.99893Z" fill="#9689A6"/>
<path d="M5 17C5.27614 17 5.5 16.7761 5.5 16.5C5.5 16.2239 5.27614 16 5 16C4.72386 16 4.5 16.2239 4.5 16.5C4.5 16.7761 4.72386 17 5 17Z" fill="#9689A6"/>
<path d="M1.5 9C2.05229 9 2.5 8.55228 2.5 8C2.5 7.44771 2.05229 7 1.5 7C0.947717 7 0.5 7.44771 0.5 8C0.5 8.55228 0.947717 9 1.5 9Z" fill="#9689A6"/>
<path d="M10 3C10.2761 3 10.5 2.77614 10.5 2.5C10.5 2.22386 10.2761 2 10 2C9.72386 2 9.5 2.22386 9.5 2.5C9.5 2.77614 9.72386 3 10 3Z" fill="#9689A6"/>
<path d="M11.5 20C12.0523 20 12.5 19.5523 12.5 19C12.5 18.4477 12.0523 18 11.5 18C10.9477 18 10.5 18.4477 10.5 19C10.5 19.5523 10.9477 20 11.5 20Z" fill="#9689A6"/>
<path d="M16 19C16.8284 19 17.5 18.3284 17.5 17.5C17.5 16.6716 16.8284 16 16 16C15.1716 16 14.5 16.6716 14.5 17.5C14.5 18.3284 15.1716 19 16 19Z" fill="#9689A6"/>
<path d="M3.50403 16C4.6086 16 5.50403 15.1046 5.50403 14C5.50403 12.8954 4.6086 12 3.50403 12C2.39946 12 1.50403 12.8954 1.50403 14C1.50403 15.1046 2.39946 16 3.50403 16Z" fill="#9689A6"/>
<path d="M7.5 19C8.05229 19 8.5 18.5523 8.5 18C8.5 17.4477 8.05229 17 7.5 17C6.94772 17 6.5 17.4477 6.5 18C6.5 18.5523 6.94772 19 7.5 19Z" fill="#9689A6"/>
<path d="M12.5 2C13.0523 2 13.5 1.55228 13.5 1C13.5 0.447715 13.0523 0 12.5 0C11.9477 0 11.5 0.447715 11.5 1C11.5 1.55228 11.9477 2 12.5 2Z" fill="#9689A6"/>
<path d="M11.1587 16.1912C14.4866 16.1912 17.1844 13.4935 17.1844 10.1656C17.1844 6.83778 14.4866 4.14002 11.1587 4.14002C7.83089 4.14002 5.13313 6.83778 5.13313 10.1656C5.13313 13.4935 7.83089 16.1912 11.1587 16.1912Z" fill="#9689A6"/>
</svg>
