<svg width="62" height="50" viewBox="0 0 62 50" fill="none" xmlns="http://www.w3.org/2000/svg">
<path d="M44.0704 0.912509L44.0694 0.912588L5.42588 3.97296C5.42572 3.97297 5.42555 3.97298 5.42539 3.97299C2.71771 4.16073 0.719484 6.53513 0.912928 9.1604L0.91302 9.16149L3.3125 37.5012L3.31269 37.503C3.44138 38.7505 4.02087 39.939 5.05415 40.7533C5.95678 41.5029 7.05274 41.8774 8.21114 41.8774H8.21188H8.21262H8.21336H8.2141H8.21484H8.21558H8.21632H8.21706H8.2178H8.21854H8.21928H8.22002H8.22076H8.2215H8.22224H8.22298H8.22372H8.22446H8.2252H8.22594H8.22668H8.22742H8.22816H8.2289H8.22964H8.23038H8.23112H8.23186H8.2326H8.23334H8.23408H8.23482H8.23556H8.2363H8.23704H8.23778H8.23852H8.23926H8.24H8.24074H8.24148H8.24222H8.24296H8.2437H8.24444H8.24518H8.24592H8.24666H8.2474H8.24814H8.24888H8.24962H8.25036H8.2511H8.25184H8.25258H8.25332H8.25406H8.2548H8.25554H8.25628H8.25702H8.25776H8.2585H8.25924H8.25998H8.26072H8.26146H8.2622H8.26294H8.26368H8.26442H8.26516H8.2659H8.26664H8.26738H8.26812H8.26886H8.2696H8.27034H8.27108H8.27182H8.27256H8.2733H8.27404H8.27478H8.27552H8.27626H8.277H8.27774H8.27848H8.27922H8.27996H8.2807H8.28144H8.28218H8.28292H8.28366H8.2844H8.28514H8.28588H8.28662H8.28736H8.2881H8.28884H8.28958H8.29032H8.29106H8.2918H8.29254H8.29328H8.29402H8.29476H8.2955H8.29624H8.29698H8.29772H8.29846H8.2992H8.29994H8.30068H8.30142H8.30216H8.3029H8.30364H8.30438H8.30512H8.30586H8.3066H8.30734H8.30808H8.30882H8.30956H8.3103H8.31104H8.31178H8.31252H8.31326H8.314H8.31474H8.31548H8.31622H8.31696H8.3177H8.31844H8.31918H8.31992H8.32066H8.3214H8.32214H8.32288H8.32362H8.32436H8.3251H8.32584H8.32658H8.32732H8.32806H8.3288H8.32954H8.33028H8.33102H8.33176H8.3325H8.33324H8.33398H8.33472H8.33546H8.3362H8.33694H8.33768H8.33842H8.33916H8.3399H8.34064H8.34138H8.34212H8.34286H8.3436H8.34434H8.34508H8.34582H8.34656H8.3473H8.34804H8.34878H8.34952H8.35026H8.351H8.35174H8.35248H8.35322H8.35396H8.3547H8.35544H8.35618H8.35692H8.35766H8.3584H8.35914H8.35988H8.36062H8.36136H8.3621H8.36284H8.36358H8.36432H8.36506H8.3658H8.36654H8.36728H8.36802H8.36876H8.3695H8.37024H8.37098H8.37172H8.37246H8.3732H8.37394H8.37468H8.37542H8.37616H8.3769H8.37764H8.37838H8.37912H8.37986H8.3806H8.38134H8.38208H8.38282H8.38356H8.3843H8.38504H8.38578H8.38652H8.38726H8.388H8.38874H8.38948H8.39022H8.39096H8.3917H8.39244H8.39318H8.39392H8.39466H8.3954H8.39614H8.39688H8.39762H8.39836H8.3991H8.39984H8.40058H8.40132H8.40206H8.4028H8.40354H8.40428H8.40502H8.40576H8.4065H8.40724H8.40798H8.40872H8.40946H8.4102H8.41094H8.41168H8.41242H8.41316H8.4139H8.41464H8.41538H8.41612H8.41686H8.4176H8.41834H8.41908H8.41982H8.42056H8.4213H8.42204H8.42278H8.42352H8.42426H8.425H8.42574H8.42648H8.42722H8.42796H8.4287H8.42944H8.43018H8.43092H8.43166H8.4324H8.43314H8.43388H8.43462H8.43536H8.4361H8.43684H8.43758H8.43832H8.43906H8.4398H8.44054H8.44128H8.44202H8.44276H8.4435H8.44424H8.44498H8.44572H8.44646H8.4472H8.44794H8.44868H8.44942H8.45016H8.4509H8.45164H8.45238H8.45312H8.45386H8.4546H8.45534H8.45608H8.45682H8.45756H8.4583H8.45904H8.45978H8.46052H8.46126H8.462H8.46274H8.46348H8.46422H8.46496H8.4657H8.46644H8.46718H8.46792H8.46866H8.4694H8.47014H8.47088H8.47162H8.47236H8.4731H8.47384H8.47458H8.47532H8.47606H8.4768H8.47754H8.47828H8.47902H8.47976H8.4805H8.48124H8.48198H8.48272H8.48346H8.4842H8.48494H8.48568H8.48642H8.48716H8.4879H8.48864H8.48938H8.49012H8.49086H8.4916H8.49234H8.49308H8.49382H8.49455H8.4953H8.49604H8.49678H8.49752H8.49826H8.49899H8.49973H8.50047H8.50121H8.50196H8.5027H8.50344H8.50417H8.50491H8.50565H8.50639H8.50713H8.50787H8.50861H8.50935H8.51009H8.51083H8.51157H8.51231H8.51305H8.51379H8.51453H8.51527H8.51601H8.51675H8.51749H8.51823H8.51897H8.51971H8.52045H8.52119H8.52193H8.52267H8.52341H8.52415H8.52489H8.52563H8.52637H8.52711H8.52785H8.52859H8.52933H8.53007H8.53081H8.53155H8.53229H8.53303H8.53377H8.53451H8.53525H8.53599H8.53673H8.53747H8.53821H8.53895H8.53969H8.54043H8.54117H8.54191H8.54265H8.54339H8.54413H8.54487H8.54561H8.54635H8.54709H8.54783H8.54857H8.54931H8.55005H8.55079H8.55153H8.55227H8.55301H8.55375H8.55449H8.55523H8.55597H8.55671H8.55745H8.55819H8.55893H8.55967H8.56041H8.56115H8.56189H8.56263H8.56337H8.56411H8.56485H8.56559H8.56633H8.56707H8.56781H8.56855H8.56929H8.57003H8.57077H8.57151H8.57225H8.57299H8.57373H8.57447H8.57521H8.57595H8.57669H8.57743H8.57817H8.57891H8.57965H8.58039H8.58113H8.58187H8.58261H8.58335H8.58409H8.58483H8.58557H8.58631H8.58705H8.58779H8.58853H8.58927H8.59001V41.8777L8.59781 41.8771L12.405 41.5794V44.2869C12.405 46.915 14.5988 49.1 17.3671 49.1H56.1379C58.8414 49.1 61.1 46.9779 61.1 44.2869L61.1 15.7636L61.1 15.7611C61.0354 13.1338 58.8419 11.0117 56.0747 11.0117H49.852L49.3548 5.28954C49.3548 5.28938 49.3548 5.28921 49.3548 5.28904C49.1607 2.65888 46.7723 0.725434 44.0704 0.912509ZM8.26697 38.0663L8.26691 38.0656L8.25526 38.0679C7.98055 38.1211 7.75707 38.0183 7.51221 37.8403C7.28489 37.6751 7.17454 37.46 7.17454 37.1867H7.1749L7.17419 37.1783L4.77469 8.83857L4.77471 8.83857L4.77452 8.83674C4.71777 8.28663 5.11163 7.84053 5.69415 7.78366C5.69443 7.78363 5.69472 7.7836 5.69501 7.78357L44.3377 4.7233L44.3395 4.72313C44.915 4.66734 45.372 5.05447 45.43 5.61216C45.43 5.61251 45.4301 5.61285 45.4301 5.6132L45.8633 11.0117H17.304C14.6005 11.0117 12.3418 13.1339 12.3418 15.8248V37.7671L8.26697 38.0663ZM48.75 25.351C50.7552 25.351 52.386 23.7745 52.386 21.8233C52.386 19.8721 50.7552 18.2956 48.75 18.2956C46.7448 18.2956 45.1139 19.8721 45.1139 21.8233C45.1139 23.7745 46.7448 25.351 48.75 25.351ZM57.1113 15.7636V28.1504C55.498 28.1552 53.8838 28.2779 52.2093 28.5184C46.7896 29.2515 41.7425 31.2011 38.1306 33.8873C36.3792 33.0392 34.5613 32.1908 32.6182 31.5224C27.0869 29.5118 21.5542 28.409 16.3305 28.215V15.7636C16.3305 15.2097 16.7879 14.7618 17.3671 14.7618H56.1324C56.6568 14.821 57.1113 15.2741 57.1113 15.7636Z" fill="#9A83B7" stroke="#63517A" stroke-width="0.2"/>
</svg>
