<svg width="21" height="20" viewBox="0 0 21 20" fill="none" xmlns="http://www.w3.org/2000/svg">
<path d="M16.5421 16.7368C16.5421 17.5368 15.8895 18.1474 15.1105 18.1474H3.78421C2.98421 18.1474 2.35263 17.5158 2.35263 16.7368V5.36842C2.35263 4.58947 3.00526 3.95789 3.78421 3.95789H9.57368L11.4053 2.12632H3.78421C1.97368 2.12632 0.5 3.57895 0.5 5.36842V16.7368C0.5 18.5474 1.97368 20 3.78421 20H15.1316C16.9421 20 18.4158 18.5474 18.4158 16.7368V9.09474L16.5842 10.9263V16.7368H16.5421Z" fill="#63517A"/>
<path d="M20.0789 2.98947L17.5105 0.442105C17.2368 0.168421 16.8579 0 16.4789 0C16.0789 0 15.7211 0.147368 15.4474 0.421053L5.97368 9.89474C5.72105 10.1474 5.57368 10.4842 5.55263 10.8421L5.38421 13.5579C5.36316 13.9789 5.51053 14.4 5.80526 14.6947C6.07895 14.9684 6.45789 15.1158 6.83684 15.1158C6.85789 15.1158 6.9 15.1158 6.92105 15.1158L9.65789 14.9474C10.0158 14.9263 10.3526 14.7789 10.6053 14.5263L20.0579 5.07368C20.3316 4.8 20.4789 4.42105 20.4789 4.04211C20.5 3.64211 20.3526 3.26316 20.0789 2.98947ZM9.40526 13.1368L7.23684 13.2632L7.36316 11.0947L7.97368 10.4842L10.0158 12.5263L9.40526 13.1368ZM17.3632 5.15789L15.3421 3.13684L16.4789 2L18.5211 4.04211L17.3632 5.15789Z" fill="#63517A"/>
</svg>
