<svg width="240" height="84" viewBox="0 0 240 84" fill="none" xmlns="http://www.w3.org/2000/svg">
<g clip-path="url(#clip0)">
<path d="M120.851 17.3601C122.528 16.9084 124.034 15.9669 125.179 14.6547C126.324 13.3424 127.056 11.7183 127.283 9.98767C127.51 8.25705 127.221 6.49763 126.454 4.93188C125.686 3.36612 124.474 2.06434 122.971 1.19111C121.468 0.317891 119.741 -0.0875553 118.009 0.0260367C116.276 0.139629 114.616 0.767158 113.239 1.82928C111.861 2.89141 110.827 4.34043 110.269 5.99315C109.71 7.64587 109.651 9.42806 110.1 11.1144C110.702 13.3757 112.174 15.3038 114.19 16.475C116.206 17.6461 118.602 17.9645 120.851 17.3601ZM117.368 4.2719C118.567 3.95217 119.844 4.12369 120.917 4.74885C121.991 5.37401 122.774 6.40177 123.095 7.60677C123.413 8.81188 123.244 10.0947 122.623 11.1741C122.002 12.2535 120.981 13.0416 119.784 13.3656L115.254 14.5854L114.041 10.0359C113.723 8.82867 113.895 7.54401 114.519 6.4642C115.143 5.38439 116.168 4.59776 117.368 4.27714V4.2719Z" fill="white"/>
<path d="M67.7957 35.6785C66.5673 34.4435 65.0022 33.6025 63.2984 33.2619C61.5945 32.9212 59.8285 33.0962 58.2236 33.7647C56.6187 34.4332 55.247 35.5653 54.282 37.0176C53.3169 38.47 52.8018 40.1775 52.8018 41.9242C52.8018 43.6709 53.3169 45.3784 54.282 46.8307C55.247 48.2831 56.6187 49.4151 58.2236 50.0836C59.8285 50.7521 61.5945 50.9271 63.2984 50.5865C65.0022 50.2458 66.5673 49.4048 67.7957 48.1698C68.6115 47.3497 69.2587 46.376 69.7002 45.3044C70.1417 44.2327 70.369 43.0841 70.369 41.9242C70.369 40.7642 70.1417 39.6156 69.7002 38.544C69.2587 37.4723 68.6115 36.4986 67.7957 35.6785ZM58.2676 45.2538C57.8323 44.8163 57.487 44.2968 57.2514 43.725C57.0158 43.1533 56.8945 42.5404 56.8945 41.9216C56.8945 41.3027 57.0158 40.6899 57.2514 40.1181C57.487 39.5463 57.8323 39.0269 58.2676 38.5893C58.7027 38.1516 59.2194 37.8044 59.788 37.5675C60.3566 37.3307 60.9661 37.2087 61.5816 37.2087C62.1971 37.2087 62.8066 37.3307 63.3752 37.5675C63.9438 37.8044 64.4605 38.1516 64.8956 38.5893L68.2123 41.9242L64.8956 45.2538C64.4605 45.6915 63.9438 46.0387 63.3752 46.2756C62.8066 46.5125 62.1971 46.6344 61.5816 46.6344C60.9661 46.6344 60.3566 46.5125 59.788 46.2756C59.2194 46.0387 58.7027 45.6915 58.2676 45.2538Z" fill="white"/>
<path d="M77.2666 66.4775C75.5902 66.93 74.0848 67.8722 72.9408 69.1848C71.7968 70.4974 71.0655 72.1216 70.8393 73.852C70.6131 75.5824 70.9021 77.3415 71.67 78.9068C72.4378 80.472 73.6499 81.7733 75.1531 82.6461C76.6562 83.5188 78.383 83.9239 80.1151 83.8101C81.8472 83.6964 83.5068 83.0688 84.8843 82.0068C86.2618 80.9448 87.2952 79.496 87.854 77.8436C88.4127 76.1912 88.4717 74.4093 88.0235 72.7232C87.4207 70.4607 85.9488 68.5316 83.9315 67.3603C81.9142 66.1891 79.5168 65.8715 77.2666 66.4775ZM80.7551 79.5657C79.5558 79.8854 78.2794 79.7139 77.2058 79.0887C76.1321 78.4636 75.3489 77.4358 75.0278 76.2308C74.7098 75.025 74.8804 73.7416 75.5021 72.662C76.1238 71.5824 77.146 70.7949 78.3444 70.472L82.869 69.2522L84.0821 73.8016C84.3997 75.0089 84.2277 76.2935 83.6039 77.3734C82.98 78.4532 81.9554 79.2398 80.7551 79.5604V79.5657Z" fill="white"/>
<path d="M77.2665 17.36C78.9433 17.8117 80.7157 17.7533 82.3595 17.1923C84.0033 16.6313 85.4448 15.5928 86.5017 14.2081C87.5587 12.8235 88.1836 11.1548 88.2975 9.41308C88.4114 7.67136 88.0091 5.93478 87.1416 4.4229C86.274 2.91101 84.9802 1.69169 83.4236 0.919088C81.8669 0.146485 80.1175 -0.144714 78.3963 0.0823041C76.6751 0.309322 75.0595 1.04437 73.7537 2.19451C72.4479 3.34465 71.5106 4.85826 71.0602 6.54397C70.4573 8.80578 70.7724 11.2157 71.9363 13.244C73.1001 15.2723 75.0173 16.7528 77.2665 17.36ZM75.012 7.61196C75.3331 6.40697 76.1164 5.37921 77.19 4.75405C78.2637 4.12889 79.5401 3.95737 80.7393 4.2771C81.9368 4.6011 82.9577 5.38914 83.5783 6.46856C84.199 7.54798 84.3689 8.83078 84.0507 10.0359L82.8376 14.5853L78.313 13.3655C77.1187 13.0392 76.1012 12.251 75.4827 11.1731C74.8643 10.0951 74.6951 8.81493 75.012 7.61196Z" fill="white"/>
<path d="M110.1 72.723C109.651 74.4094 109.71 76.1915 110.269 77.8443C110.827 79.497 111.861 80.946 113.239 82.0081C114.616 83.0702 116.276 83.6978 118.009 83.8114C119.741 83.925 121.468 83.5195 122.971 82.6463C124.474 81.7731 125.686 80.4713 126.454 78.9055C127.221 77.3398 127.51 75.5804 127.283 73.8497C127.056 72.1191 126.324 70.495 125.179 69.1827C124.034 67.8705 122.528 66.929 120.851 66.4773C119.737 66.1773 118.576 66.1009 117.433 66.2525C116.289 66.404 115.187 66.7805 114.189 67.3605C113.19 67.9405 112.315 68.7126 111.614 69.6328C110.912 70.5529 110.397 71.6029 110.1 72.723ZM123.116 76.2254C122.795 77.4304 122.012 78.4582 120.938 79.0833C119.864 79.7085 118.588 79.88 117.389 79.5603C116.19 79.2374 115.168 78.4498 114.547 77.3703C113.925 76.2907 113.754 75.0073 114.072 73.8015L115.285 69.252L119.815 70.4718C121.008 70.8004 122.023 71.5895 122.639 72.6672C123.255 73.7449 123.423 75.0239 123.106 76.2254H123.116Z" fill="white"/>
<path d="M131.218 48.1698C132.446 49.4048 134.011 50.2458 135.715 50.5865C137.419 50.9271 139.185 50.7521 140.79 50.0836C142.395 49.4151 143.766 48.2831 144.732 46.8307C145.697 45.3784 146.212 43.6709 146.212 41.9242C146.212 40.1775 145.697 38.47 144.732 37.0176C143.766 35.5653 142.395 34.4332 140.79 33.7647C139.185 33.0962 137.419 32.9212 135.715 33.2619C134.011 33.6025 132.446 34.4435 131.218 35.6785C130.402 36.4986 129.755 37.4723 129.313 38.544C128.872 39.6156 128.645 40.7642 128.645 41.9242C128.645 43.0841 128.872 44.2327 129.313 45.3044C129.755 46.376 130.402 47.3497 131.218 48.1698ZM140.741 38.5893C141.176 39.0269 141.521 39.5463 141.757 40.1181C141.992 40.6899 142.114 41.3027 142.114 41.9216C142.114 42.5404 141.992 43.1533 141.757 43.725C141.521 44.2968 141.176 44.8163 140.741 45.2538C140.306 45.6915 139.789 46.0387 139.22 46.2756C138.652 46.5125 138.042 46.6344 137.427 46.6344C136.811 46.6344 136.202 46.5125 135.633 46.2756C135.064 46.0387 134.548 45.6915 134.113 45.2538L130.801 41.9242L134.113 38.5893C134.548 38.1516 135.064 37.8044 135.633 37.5675C136.202 37.3307 136.811 37.2087 137.427 37.2087C138.042 37.2087 138.652 37.3307 139.22 37.5675C139.789 37.8044 140.306 38.1516 140.741 38.5893Z" fill="white"/>
<path d="M75.0851 45.9238H72.8774V50.2377C73.0753 50.2848 73.346 50.3476 73.7105 50.4157C74.1019 50.4894 74.4995 50.5245 74.8976 50.5204H75.3246C75.7227 50.5245 76.1203 50.4894 76.5117 50.4157C76.8761 50.3476 77.1521 50.2848 77.3447 50.2377V45.9238H75.0851Z" fill="white"/>
<path d="M13.0372 33.3121C12.6431 33.3083 12.2495 33.338 11.8605 33.4011C11.5788 33.4378 11.3015 33.5027 11.0326 33.5948V46.5626C10.6706 46.7684 10.2815 46.9218 9.87674 47.018C9.27438 47.1701 8.6545 47.2406 8.03359 47.2274C7.08206 47.2922 6.13924 47.0096 5.3782 46.4317C4.75688 45.9012 4.44621 45.0286 4.44621 43.814V35.3957C4.44621 34.5947 4.24836 34.045 3.84745 33.7519C3.29851 33.4179 2.65974 33.2642 2.01992 33.3121C1.61377 33.3076 1.20796 33.3373 0.806773 33.4011C0.526892 33.4383 0.251343 33.5032 -0.0158759 33.5948V43.8769C-0.0410079 44.9411 0.150343 45.9994 0.546441 46.9866C0.898951 47.8286 1.4535 48.5697 2.1605 49.1435C2.90866 49.7324 3.77035 50.1585 4.69093 50.3948C5.76993 50.6786 6.88188 50.816 7.99714 50.8031C9.19932 50.8193 10.3984 50.6768 11.5637 50.3791C12.4774 50.159 13.3544 49.8063 14.167 49.332C14.6014 49.1194 14.9637 48.7824 15.2083 48.3635C15.4083 47.9387 15.5046 47.4721 15.4895 47.0023V35.3957C15.4895 34.5947 15.2968 34.045 14.9063 33.7519C14.3459 33.4086 13.6909 33.2545 13.0372 33.3121Z" fill="white"/>
<path d="M32.4894 34.6364C31.1669 33.5649 29.2994 33.0292 26.887 33.0292C25.6285 33.0151 24.3741 33.1754 23.1591 33.5056C22.1992 33.7511 21.285 34.1506 20.4516 34.6888C20.0238 34.9622 19.6539 35.318 19.3634 35.7358C19.1212 36.1375 19.0001 36.6012 19.0146 37.0708V50.2165C19.202 50.2637 19.4728 50.3265 19.8372 50.3945C20.2251 50.4683 20.6192 50.5034 21.0139 50.4993H21.4409C21.6544 50.4993 21.8626 50.4993 22.0657 50.4993C22.2687 50.4993 22.4562 50.4521 22.6332 50.4207L22.7894 50.3841L23.0029 50.3422L23.4767 50.2427V37.4425C23.9455 37.1636 24.45 36.9505 24.9762 36.809C25.5855 36.6331 26.2166 36.545 26.8506 36.5473C27.688 36.5017 28.5148 36.7517 29.1884 37.254C29.4909 37.5344 29.7255 37.8807 29.8745 38.2664C30.0234 38.652 30.0825 39.0668 30.0475 39.479V48.4209C30.0143 48.7178 30.0491 49.0184 30.1492 49.2997C30.2494 49.581 30.4123 49.8355 30.6254 50.0438C31.1751 50.3959 31.8242 50.5577 32.4738 50.5045C32.8684 50.506 33.2623 50.4709 33.6505 50.3998C34.0149 50.3265 34.2909 50.2689 34.4783 50.2218V39.3534C34.4783 37.2802 33.8153 35.7079 32.4894 34.6364Z" fill="white"/>
<path d="M50.3951 46.1385C49.8808 46.4188 49.3465 46.6603 48.7966 46.861C48.114 47.099 47.3946 47.2124 46.6723 47.196C46.0227 47.2226 45.3743 47.1193 44.7647 46.8919C44.1552 46.6645 43.5966 46.3177 43.1214 45.8715C42.205 44.992 41.752 43.6779 41.752 41.9346C41.7348 41.1509 41.8655 40.371 42.1373 39.6363C42.369 39.0178 42.7232 38.4532 43.1787 37.9767C43.6161 37.516 44.1495 37.1585 44.7406 36.9297C45.3635 36.6887 46.0258 36.5679 46.6931 36.5737C47.4023 36.5564 48.1085 36.6718 48.7758 36.914C49.3131 37.1165 49.8352 37.358 50.3378 37.6364C50.603 37.4381 50.8305 37.1934 51.0094 36.914C51.2153 36.6047 51.3208 36.2389 51.3114 35.8669C51.3114 35.0642 50.8428 34.3871 49.9056 33.8356C48.7464 33.2332 47.45 32.9479 46.1464 33.0084C44.9769 32.9944 43.8129 33.1712 42.6996 33.532C41.6514 33.881 40.688 34.4482 39.8724 35.1968C39.0363 35.9729 38.3819 36.926 37.9564 37.9872C37.4649 39.2287 37.2259 40.5567 37.2535 41.8927C37.226 43.2052 37.4469 44.511 37.9043 45.7406C38.2984 46.7957 38.9291 47.7452 39.7475 48.5153C40.5685 49.2743 41.5465 49.841 42.6111 50.1749C43.7911 50.5409 45.0211 50.7175 46.2558 50.6984C47.5653 50.7607 48.8697 50.4944 50.0514 49.9236C50.9886 49.4036 51.4572 48.7439 51.4572 47.9447C51.4614 47.5741 51.3582 47.2103 51.1604 46.8976C50.9519 46.6011 50.6928 46.3441 50.3951 46.1385Z" fill="white"/>
<path d="M124.043 34.4534C123.419 33.9442 122.692 33.5763 121.914 33.375C121.065 33.1466 120.189 33.0339 119.31 33.0399C118.248 33.0152 117.19 33.1819 116.186 33.532C115.357 33.8374 114.573 34.2529 113.854 34.7675C112.387 33.5702 110.534 32.9555 108.647 33.0399C107.516 33.0362 106.39 33.1967 105.304 33.5163C104.36 33.7747 103.46 34.1735 102.633 34.6995C102.204 34.9705 101.833 35.3268 101.545 35.7465C101.3 36.1565 101.178 36.6295 101.196 37.1077V50.2534C101.389 50.3006 101.66 50.3634 102.029 50.4314C102.419 50.5052 102.815 50.5403 103.211 50.5361H103.643C104.04 50.5403 104.436 50.5052 104.825 50.4314C105.19 50.3634 105.466 50.3006 105.658 50.2534V45.9396V37.4113C106.053 37.1922 106.464 37.0032 106.887 36.8459C107.405 36.653 107.954 36.5572 108.506 36.5632C109.252 36.5287 109.987 36.7523 110.589 37.1967C110.874 37.4517 111.095 37.7702 111.235 38.1265C111.375 38.4829 111.43 38.8673 111.396 39.2489V48.4368C111.362 48.7342 111.397 49.0354 111.499 49.317C111.6 49.5985 111.764 49.8527 111.979 50.0597C112.527 50.4129 113.174 50.5748 113.822 50.5204C114.217 50.5219 114.611 50.4869 114.999 50.4157C115.364 50.3424 115.64 50.2849 115.827 50.2377V38.7202C115.827 38.3873 115.79 38.0555 115.718 37.7307C116.138 37.368 116.617 37.0795 117.134 36.8773C117.654 36.6692 118.209 36.5626 118.769 36.5632C119.491 36.5341 120.202 36.758 120.778 37.1967C121.054 37.4572 121.267 37.7774 121.402 38.1329C121.536 38.4885 121.588 38.8701 121.554 39.2489V48.4368C121.521 48.7337 121.556 49.0344 121.656 49.3157C121.756 49.597 121.919 49.8515 122.132 50.0597C122.682 50.4118 123.331 50.5736 123.981 50.5204C124.375 50.5219 124.769 50.4869 125.157 50.4157C125.517 50.3424 125.792 50.2849 125.98 50.2377V39.0709C126.007 38.1309 125.83 37.1963 125.459 36.3329C125.135 35.6063 124.651 34.9635 124.043 34.4534Z" fill="white"/>
<path d="M181.379 34.5477C180.618 34.0846 179.796 33.7321 178.937 33.5006C177.845 33.1871 176.714 33.0337 175.578 33.0452C174.386 33.0273 173.2 33.2042 172.064 33.5687C171.055 33.89 170.126 34.4257 169.341 35.1393C168.564 35.865 167.964 36.7606 167.586 37.7569C167.156 38.913 166.948 40.1405 166.972 41.3745C166.937 42.681 167.145 43.9825 167.586 45.2119C167.942 46.1809 168.512 47.0562 169.252 47.772C169.955 48.4304 170.797 48.9207 171.715 49.2064C172.683 49.5044 173.691 49.6526 174.704 49.6462C175.431 49.6557 176.157 49.5731 176.864 49.4001C177.428 49.2546 177.976 49.0529 178.499 48.7981V50.3163C178.54 50.8193 178.451 51.3244 178.242 51.7829C178.032 52.2414 177.708 52.6378 177.302 52.9339C176.306 53.5268 175.157 53.8092 174.001 53.7454C173.058 53.7517 172.119 53.6086 171.22 53.3213C170.447 53.0799 169.704 52.7478 169.008 52.3319C168.729 52.5219 168.5 52.777 168.341 53.0753C168.147 53.431 168.05 53.832 168.06 54.2375C168.058 54.6419 168.165 55.0393 168.37 55.3876C168.574 55.7359 168.868 56.0223 169.221 56.2164C169.852 56.5738 170.533 56.8316 171.241 56.9808C172.285 57.218 173.353 57.3304 174.423 57.3158C175.523 57.3242 176.62 57.1923 177.687 56.9232C178.637 56.693 179.533 56.2806 180.327 55.7086C181.08 55.1479 181.689 54.4136 182.102 53.5674C182.556 52.5956 182.777 51.5307 182.748 50.4577V36.846C182.768 36.3704 182.64 35.9004 182.383 35.5005C182.109 35.1243 181.768 34.8015 181.379 34.5477ZM178.426 45.2538C178.043 45.532 177.625 45.7574 177.182 45.9239C176.115 46.2857 174.963 46.3022 173.886 45.971C173.398 45.811 172.956 45.5323 172.6 45.1596C172.209 44.7357 171.921 44.2269 171.757 43.6728C171.542 42.9388 171.442 42.1759 171.46 41.4111C171.46 39.762 171.85 38.5474 172.637 37.7464C173.049 37.3451 173.539 37.033 174.077 36.8295C174.614 36.626 175.187 36.5354 175.761 36.5633C176.289 36.5521 176.816 36.6227 177.323 36.7727C177.719 36.899 178.101 37.0657 178.463 37.27L178.426 45.2538Z" fill="white"/>
<path d="M200.305 35.4322C199.534 34.6483 198.606 34.0395 197.582 33.6469C195.31 32.8234 192.824 32.8234 190.553 33.6469C189.532 34.0372 188.605 34.6382 187.83 35.4112C187.049 36.2045 186.449 37.1582 186.07 38.2069C185.647 39.3813 185.439 40.6228 185.455 41.8715C185.434 43.1412 185.642 44.4041 186.07 45.5991C186.448 46.6419 187.04 47.5928 187.809 48.3895C188.575 49.1671 189.498 49.7705 190.516 50.159C192.813 50.9826 195.322 50.9826 197.618 50.159C198.636 49.7667 199.558 49.1577 200.32 48.3737C201.088 47.5682 201.68 46.6107 202.059 45.5624C202.881 43.1891 202.881 40.6064 202.059 38.233C201.679 37.1847 201.081 36.2298 200.305 35.4322ZM197.071 45.8399C196.699 46.274 196.238 46.6224 195.719 46.8611C195.201 47.0999 194.637 47.2235 194.067 47.2235C193.497 47.2235 192.933 47.0999 192.415 46.8611C191.896 46.6224 191.435 46.274 191.063 45.8399C190.344 44.9185 189.99 43.5992 189.99 41.882C189.99 40.1648 190.35 38.8717 191.078 37.9399C191.446 37.5032 191.904 37.1523 192.42 36.9117C192.936 36.671 193.498 36.5464 194.067 36.5464C194.636 36.5464 195.198 36.671 195.714 36.9117C196.23 37.1523 196.688 37.5032 197.056 37.9399C197.778 38.8717 198.14 40.1858 198.144 41.882C198.147 43.5782 197.79 44.8975 197.071 45.8399Z" fill="white"/>
<path d="M219.46 35.4322C218.687 34.6482 217.757 34.0394 216.731 33.6469C214.46 32.8234 211.974 32.8234 209.702 33.6469C208.683 34.0391 207.756 34.6399 206.979 35.4112C206.202 36.2061 205.604 37.1595 205.225 38.2068C204.802 39.3813 204.594 40.6227 204.61 41.8715C204.589 43.1412 204.797 44.4041 205.225 45.599C205.603 46.6419 206.195 47.5928 206.964 48.3894C207.729 49.1682 208.653 49.7718 209.671 50.159C211.966 50.9826 214.473 50.9826 216.768 50.159C217.788 49.7681 218.712 49.1589 219.475 48.3737C220.241 47.5667 220.833 46.6097 221.214 45.5624C222.029 43.1879 222.029 40.6075 221.214 38.233C220.832 37.1856 220.234 36.2312 219.46 35.4322ZM216.226 45.8399C215.853 46.2741 215.392 46.6225 214.873 46.8613C214.354 47.1001 213.79 47.2237 213.22 47.2237C212.649 47.2237 212.085 47.1001 211.566 46.8613C211.047 46.6225 210.586 46.2741 210.213 45.8399C209.498 44.9185 209.151 43.5992 209.171 41.882C209.171 40.1858 209.531 38.8717 210.26 37.9399C210.627 37.5033 211.084 37.1525 211.6 36.9119C212.115 36.6712 212.677 36.5466 213.246 36.5466C213.814 36.5466 214.376 36.6712 214.891 36.9119C215.407 37.1525 215.864 37.5033 216.232 37.9399C216.96 38.8717 217.32 40.1858 217.32 41.882C217.32 43.5782 216.94 44.9237 216.226 45.8399Z" fill="white"/>
<path d="M239.422 27.4799C238.872 27.1278 238.223 26.966 237.574 27.0192C237.18 27.018 236.786 27.0477 236.397 27.1082C236.116 27.1474 235.839 27.2122 235.569 27.3019V33.6994C235.08 33.4974 234.575 33.338 234.059 33.223C233.472 33.0903 232.871 33.0253 232.268 33.0293C231.135 33.016 230.007 33.1929 228.931 33.5528C227.926 33.8897 227.008 34.4437 226.239 35.1757C225.445 35.9592 224.829 36.9056 224.432 37.9504C223.956 39.2319 223.728 40.5931 223.761 41.9606C223.761 44.9552 224.587 47.1767 226.239 48.6251C227.891 50.0736 230.123 50.7978 232.935 50.7978C234.067 50.8182 235.195 50.6574 236.277 50.3214C237.089 50.0678 237.867 49.7162 238.594 49.2743C238.997 49.0215 239.35 48.6968 239.636 48.3163C239.893 47.934 240.025 47.4796 240.01 47.0179V29.1028C240.042 28.8051 240.006 28.504 239.904 28.2226C239.802 27.9412 239.637 27.6872 239.422 27.4799ZM235.569 46.5258C234.766 47.0171 233.838 47.2627 232.898 47.2326C232.279 47.2648 231.659 47.1706 231.076 46.9555C230.494 46.7405 229.96 46.4091 229.509 45.9813C228.676 45.1437 228.259 43.8174 228.259 42.0025C228.259 40.0707 228.696 38.6834 229.561 37.8143C229.994 37.3942 230.506 37.0656 231.068 36.848C231.63 36.6304 232.229 36.5282 232.831 36.5474C233.341 36.5428 233.85 36.6133 234.34 36.7568C234.77 36.8801 235.182 37.0559 235.569 37.2803V46.5258Z" fill="white"/>
<path d="M95.6823 34.4532C95.0578 33.9439 94.3315 33.5761 93.5528 33.3747C92.7038 33.1463 91.8282 33.0337 90.9495 33.0397C89.8873 33.015 88.8293 33.1816 87.8255 33.5318C86.9955 33.8383 86.2094 34.2537 85.4877 34.7673C84.0217 33.5686 82.1686 32.9538 80.281 33.0397C79.1516 33.0364 78.0275 33.1968 76.9436 33.5161C75.9996 33.7745 75.0993 34.1733 74.2726 34.6992C73.8429 34.9703 73.4726 35.3266 73.1844 35.7463C72.9603 36.15 72.8538 36.6091 72.8772 37.0708V48.4156C72.8446 48.7143 72.8817 49.0166 72.9857 49.2983C73.0896 49.58 73.2575 49.8335 73.476 50.0386C74.0198 50.3862 74.6608 50.5478 75.3035 50.4993C75.7051 50.5024 76.106 50.4674 76.501 50.3946L77.3445 50.2166V37.4111C77.7394 37.192 78.1502 37.003 78.5733 36.8457C79.082 36.65 79.6218 36.5488 80.1665 36.5473C80.9123 36.5132 81.6472 36.7367 82.2492 37.1808C82.5336 37.4358 82.7548 37.7542 82.8949 38.1106C83.035 38.4669 83.0903 38.8513 83.0562 39.233V48.4209C83.023 48.7178 83.0578 49.0184 83.158 49.2997C83.2581 49.581 83.421 49.8356 83.6341 50.0438C84.1838 50.3959 84.8329 50.5577 85.4825 50.5045C85.8771 50.506 86.271 50.471 86.6592 50.3998C87.0236 50.3265 87.2944 50.2689 87.4818 50.2218V38.7042C87.4833 38.3716 87.4484 38.0397 87.3777 37.7148C87.791 37.3564 88.2609 37.0698 88.7679 36.8666C89.2881 36.6585 89.8429 36.5519 90.4028 36.5525C91.1342 36.5172 91.8548 36.7414 92.4386 37.186C92.7142 37.4465 92.9273 37.7667 93.0617 38.1222C93.1961 38.4778 93.2483 38.8594 93.2143 39.2382V48.4261C93.1811 48.723 93.216 49.0237 93.3161 49.305C93.4163 49.5863 93.5792 49.8408 93.7923 50.049C94.3417 50.4019 94.991 50.5637 95.6406 50.5097C96.0352 50.511 96.4291 50.476 96.8173 50.405C97.1766 50.3317 97.4525 50.2741 97.64 50.227V39.0707C97.6648 38.1309 97.4872 37.1969 97.1193 36.3326C96.787 35.6054 96.2958 34.963 95.6823 34.4532Z" fill="white"/>
<path d="M162.208 34.6364C160.885 33.5649 159.016 33.0292 156.6 33.0292C155.343 33.0151 154.091 33.1754 152.877 33.5056C151.918 33.7511 151.003 34.1506 150.17 34.6887C149.742 34.9622 149.372 35.318 149.082 35.7358C148.83 36.149 148.706 36.6285 148.728 37.1127V50.2584C148.92 50.3055 149.191 50.3684 149.556 50.4364C149.943 50.5102 150.338 50.5452 150.732 50.5411H151.159C151.373 50.5411 151.581 50.5411 151.779 50.5411C151.977 50.5411 152.175 50.494 152.352 50.4626L152.508 50.426C152.578 50.416 152.647 50.4021 152.716 50.3841L153.195 50.2846V37.4425C153.662 37.1641 154.165 36.951 154.689 36.809C155.301 36.6379 155.934 36.5551 156.569 36.563C157.406 36.5174 158.233 36.7674 158.907 37.2697C159.209 37.5501 159.444 37.8964 159.593 38.2821C159.742 38.6677 159.801 39.0825 159.766 39.4947V48.4366C159.733 48.7335 159.767 49.0341 159.868 49.3154C159.968 49.5967 160.131 49.8512 160.344 50.0595C160.893 50.4116 161.543 50.5734 162.192 50.5202C162.587 50.5217 162.981 50.4866 163.369 50.4155C163.733 50.3422 164.004 50.2846 164.191 50.2375V39.3534C164.191 37.2802 163.53 35.7079 162.208 34.6364Z" fill="white"/>
</g>
<defs>
<clipPath id="clip0">
<rect width="240" height="83.8428" fill="white"/>
</clipPath>
</defs>
</svg>
