<svg width="215" height="75" viewBox="0 0 215 75" fill="none" xmlns="http://www.w3.org/2000/svg">
<g clip-path="url(#clip0)">
<path d="M108.263 15.5292C109.765 15.1252 111.114 14.283 112.14 13.1091C113.165 11.9353 113.821 10.4824 114.024 8.93435C114.228 7.38625 113.969 5.8124 113.282 4.41178C112.594 3.01116 111.508 1.84668 110.162 1.06555C108.815 0.284427 107.268 -0.078258 105.716 0.0233536C104.164 0.124965 102.677 0.68631 101.443 1.63641C100.209 2.58652 99.2829 3.88272 98.7823 5.36112C98.2818 6.83953 98.2291 8.43376 98.6309 9.94224C99.171 11.9651 100.489 13.6898 102.295 14.7375C104.101 15.7851 106.247 16.0699 108.263 15.5292ZM105.142 3.82141C106.217 3.5354 107.36 3.68883 108.322 4.24806C109.284 4.80728 109.985 5.72665 110.273 6.80455C110.558 7.88257 110.406 9.03006 109.85 9.99564C109.294 10.9612 108.379 11.6661 107.306 11.956L103.249 13.0471L102.162 8.97752C101.877 7.89759 102.031 6.74842 102.59 5.78249C103.149 4.81657 104.067 4.1129 105.142 3.8261V3.82141Z" fill="#EDBC33"/>
<path d="M60.7336 31.9154C59.6331 30.8107 58.231 30.0584 56.7047 29.7536C55.1784 29.4489 53.5963 29.6055 52.1586 30.2035C50.7209 30.8015 49.4921 31.8141 48.6275 33.1133C47.763 34.4125 47.3015 35.9399 47.3015 37.5023C47.3015 39.0648 47.763 40.5922 48.6275 41.8914C49.4921 43.1906 50.7209 44.2032 52.1586 44.8012C53.5963 45.3992 55.1784 45.5558 56.7047 45.2511C58.231 44.9463 59.6331 44.194 60.7336 43.0893C61.4644 42.3557 62.0442 41.4847 62.4397 40.526C62.8352 39.5674 63.0388 38.54 63.0388 37.5023C63.0388 36.4647 62.8352 35.4373 62.4397 34.4787C62.0442 33.52 61.4644 32.649 60.7336 31.9154ZM52.198 40.4808C51.808 40.0894 51.4987 39.6247 51.2876 39.1133C51.0766 38.6018 50.968 38.0536 50.968 37.5C50.968 36.9464 51.0766 36.3982 51.2876 35.8868C51.4987 35.3753 51.808 34.9106 52.198 34.5192C52.5878 34.1277 53.0506 33.8171 53.56 33.6052C54.0694 33.3933 54.6154 33.2842 55.1668 33.2842C55.7182 33.2842 56.2642 33.3933 56.7736 33.6052C57.283 33.8171 57.7458 34.1277 58.1356 34.5192L61.1068 37.5023L58.1356 40.4808C57.7458 40.8723 57.283 41.1829 56.7736 41.3948C56.2642 41.6067 55.7182 41.7158 55.1668 41.7158C54.6154 41.7158 54.0694 41.6067 53.56 41.3948C53.0506 41.1829 52.5878 40.8723 52.198 40.4808Z" fill="#315B9C"/>
<path d="M69.2179 59.4661C67.7161 59.871 66.3676 60.7137 65.3427 61.8879C64.3179 63.0621 63.6627 64.5149 63.4601 66.0629C63.2574 67.6108 63.5164 69.1843 64.2042 70.5845C64.8921 71.9847 65.9779 73.1487 67.3245 73.9294C68.6711 74.7101 70.218 75.0725 71.7697 74.9707C73.3213 74.8689 74.8081 74.3076 76.0421 73.3576C77.2761 72.4076 78.2018 71.1116 78.7024 69.6335C79.2029 68.1553 79.2558 66.5614 78.8543 65.0531C78.3143 63.0292 76.9957 61.3036 75.1885 60.2559C73.3813 59.2081 71.2337 58.924 69.2179 59.4661ZM72.343 71.1739C71.2687 71.4599 70.1252 71.3065 69.1634 70.7473C68.2016 70.188 67.4999 69.2687 67.2123 68.1908C66.9274 67.1121 67.0802 65.9641 67.6372 64.9984C68.1942 64.0327 69.1098 63.3282 70.1834 63.0393L74.2367 61.9482L75.3234 66.0178C75.608 67.0977 75.4539 68.2469 74.895 69.2128C74.3362 70.1787 73.4183 70.8824 72.343 71.1692V71.1739Z" fill="#71B078"/>
<path d="M69.2179 15.5292C70.72 15.9332 72.3078 15.881 73.7804 15.3792C75.253 14.8773 76.5443 13.9483 77.4911 12.7097C78.438 11.4711 78.9978 9.97842 79.0998 8.4204C79.2018 6.86237 78.8415 5.30895 78.0643 3.95652C77.2872 2.60409 76.1281 1.51337 74.7336 0.822254C73.3391 0.131136 71.7719 -0.12935 70.23 0.0737247C68.6881 0.2768 67.2408 0.934318 66.071 1.96316C64.9012 2.992 64.0615 4.34596 63.6581 5.85389C63.118 7.87715 63.4003 10.0329 64.4429 11.8473C65.4855 13.6616 67.203 14.986 69.2179 15.5292ZM67.1983 6.80924C67.4859 5.73134 68.1876 4.81197 69.1494 4.25275C70.1112 3.69352 71.2547 3.54009 72.329 3.8261C73.4017 4.11593 74.3162 4.82086 74.8723 5.78643C75.4283 6.75201 75.5805 7.89951 75.2955 8.97752L74.2087 13.0471L70.1554 11.956C69.0855 11.6641 68.174 10.9591 67.6199 9.99478C67.0659 9.03051 66.9143 7.88533 67.1983 6.80924Z" fill="#9A83B7"/>
<path d="M98.6309 65.0531C98.2291 66.5616 98.2818 68.1558 98.7823 69.6342C99.2829 71.1126 100.209 72.4088 101.443 73.3589C102.677 74.309 104.164 74.8704 105.716 74.972C107.268 75.0736 108.815 74.7109 110.162 73.9298C111.508 73.1486 112.594 71.9842 113.282 70.5835C113.969 69.1829 114.228 67.6091 114.024 66.061C113.821 64.5129 113.165 63.0601 112.14 61.8862C111.114 60.7123 109.765 59.8702 108.263 59.4661C107.265 59.1978 106.224 59.1294 105.2 59.265C104.176 59.4005 103.188 59.7374 102.294 60.2562C101.4 60.775 100.616 61.4657 99.9871 62.2887C99.3586 63.1118 98.8977 64.0511 98.6309 65.0531ZM110.292 68.1861C110.004 69.264 109.302 70.1833 108.34 70.7426C107.379 71.3018 106.235 71.4552 105.161 71.1692C104.087 70.8804 103.172 70.1759 102.615 69.2102C102.058 68.2445 101.905 67.0965 102.19 66.0178L103.276 61.9482L107.334 63.0393C108.403 63.3332 109.312 64.0391 109.864 65.0031C110.416 65.9672 110.567 67.1113 110.282 68.1861H110.292Z" fill="#D3584B"/>
<path d="M117.549 43.0893C118.65 44.194 120.052 44.9463 121.578 45.2511C123.104 45.5558 124.686 45.3992 126.124 44.8012C127.562 44.2032 128.791 43.1906 129.655 41.8914C130.52 40.5922 130.981 39.0648 130.981 37.5023C130.981 35.9399 130.52 34.4125 129.655 33.1133C128.791 31.8141 127.562 30.8015 126.124 30.2035C124.686 29.6055 123.104 29.4489 121.578 29.7536C120.052 30.0584 118.65 30.8107 117.549 31.9154C116.818 32.649 116.239 33.52 115.843 34.4787C115.448 35.4373 115.244 36.4647 115.244 37.5023C115.244 38.54 115.448 39.5674 115.843 40.526C116.239 41.4847 116.818 42.3557 117.549 43.0893ZM126.08 34.5192C126.47 34.9106 126.779 35.3753 126.991 35.8868C127.202 36.3982 127.31 36.9464 127.31 37.5C127.31 38.0536 127.202 38.6018 126.991 39.1133C126.779 39.6247 126.47 40.0894 126.08 40.4808C125.69 40.8723 125.228 41.1829 124.718 41.3948C124.209 41.6067 123.663 41.7158 123.111 41.7158C122.56 41.7158 122.014 41.6067 121.505 41.3948C120.995 41.1829 120.532 40.8723 120.143 40.4808L117.176 37.5023L120.143 34.5192C120.532 34.1277 120.995 33.8171 121.505 33.6052C122.014 33.3933 122.56 33.2842 123.111 33.2842C123.663 33.2842 124.209 33.3933 124.718 33.6052C125.228 33.8171 125.69 34.1277 126.08 34.5192Z" fill="#6DB5D1"/>
<path d="M67.2636 41.0802H65.2859V44.9391C65.4632 44.9813 65.7057 45.0375 66.0322 45.0983C66.3828 45.1643 66.739 45.1957 67.0957 45.192H67.4782C67.8348 45.1957 68.191 45.1643 68.5416 45.0983C68.8681 45.0375 69.1153 44.9813 69.2879 44.9391V41.0802H67.2636Z" fill="white"/>
<path d="M11.6793 29.7986C11.3264 29.7952 10.9737 29.8218 10.6252 29.8782C10.3729 29.9111 10.1244 29.9691 9.8836 30.0515V41.6516C9.55931 41.8357 9.2107 41.9729 8.84813 42.059C8.30852 42.1951 7.75322 42.2581 7.19698 42.2463C6.34457 42.3042 5.49996 42.0515 4.8182 41.5345C4.26159 41.0599 3.98329 40.2794 3.98329 39.1929V31.6625C3.98329 30.946 3.80605 30.4543 3.4469 30.192C2.95514 29.8933 2.38291 29.7558 1.80973 29.7986C1.44589 29.7946 1.08236 29.8212 0.722958 29.8782C0.472231 29.9115 0.225385 29.9696 -0.0139983 30.0515V39.2491C-0.0365125 40.2012 0.134906 41.1478 0.489744 42.0309C0.805534 42.7841 1.30232 43.447 1.93567 43.9603C2.6059 44.4871 3.37783 44.8682 4.20251 45.0796C5.16912 45.3335 6.16524 45.4564 7.16433 45.4449C8.24128 45.4594 9.31547 45.3319 10.3594 45.0656C11.1779 44.8687 11.9635 44.5532 12.6915 44.1289C13.0807 43.9387 13.4052 43.6373 13.6244 43.2626C13.8035 42.8825 13.8898 42.4652 13.8762 42.045V31.6625C13.8762 30.946 13.7036 30.4543 13.3538 30.192C12.8517 29.885 12.265 29.7471 11.6793 29.7986Z" fill="#63517A"/>
<path d="M29.1051 30.9835C27.9204 30.025 26.2475 29.5457 24.0863 29.5457C22.9589 29.5331 21.8351 29.6765 20.7467 29.9719C19.8868 30.1915 19.0679 30.5489 18.3213 31.0303C17.938 31.2749 17.6067 31.5932 17.3465 31.9669C17.1295 32.3263 17.0209 32.7411 17.0339 33.1611V44.9204C17.2019 44.9625 17.4444 45.0187 17.7709 45.0796C18.1184 45.1456 18.4714 45.177 18.825 45.1733H19.2075C19.3987 45.1733 19.5853 45.1733 19.7672 45.1733C19.9491 45.1733 20.117 45.1311 20.2756 45.103L20.4155 45.0702L20.6068 45.0328L21.0312 44.9438V33.4936C21.4512 33.2441 21.9032 33.0535 22.3745 32.9269C22.9204 32.7696 23.4858 32.6908 24.0537 32.6928C24.8038 32.652 25.5446 32.8757 26.1479 33.325C26.4189 33.5758 26.6292 33.8856 26.7626 34.2306C26.896 34.5756 26.949 34.9466 26.9176 35.3153V43.3141C26.8878 43.5797 26.919 43.8486 27.0087 44.1002C27.0985 44.3519 27.2444 44.5796 27.4353 44.7658C27.9277 45.0808 28.5092 45.2255 29.0911 45.178C29.4446 45.1793 29.7975 45.1479 30.1452 45.0843C30.4717 45.0187 30.7189 44.9672 30.8869 44.9251V35.2029C30.8869 33.3484 30.2929 31.9419 29.1051 30.9835Z" fill="#63517A"/>
<path d="M45.1455 41.2723C44.6848 41.523 44.2062 41.739 43.7136 41.9185C43.1021 42.1314 42.4576 42.2329 41.8106 42.2182C41.2286 42.2421 40.6478 42.1496 40.1017 41.9462C39.5556 41.7428 39.0552 41.4325 38.6295 41.0334C37.8086 40.2467 37.4028 39.0712 37.4028 37.5117C37.3874 36.8107 37.5045 36.113 37.748 35.4558C37.9555 34.9026 38.2729 34.3975 38.6808 33.9713C39.0727 33.5592 39.5506 33.2393 40.0801 33.0347C40.6381 32.8191 41.2315 32.7111 41.8292 32.7162C42.4645 32.7008 43.0972 32.804 43.6949 33.0206C44.1763 33.2018 44.644 33.4178 45.0942 33.6669C45.3318 33.4895 45.5356 33.2705 45.6959 33.0206C45.8803 32.744 45.9748 32.4168 45.9665 32.084C45.9665 31.3659 45.5467 30.7602 44.7071 30.2669C43.6686 29.7281 42.5072 29.4729 41.3395 29.527C40.2918 29.5144 39.249 29.6726 38.2517 29.9953C37.3126 30.3075 36.4496 30.815 35.719 31.4846C34.97 32.1788 34.3837 33.0314 34.0026 33.9807C33.5623 35.0912 33.3482 36.2792 33.3729 37.4743C33.3483 38.6483 33.5461 39.8164 33.9559 40.9163C34.3089 41.8601 34.874 42.7095 35.6071 43.3984C36.3426 44.0773 37.2187 44.5843 38.1724 44.8829C39.2295 45.2103 40.3314 45.3683 41.4374 45.3512C42.6106 45.4069 43.7791 45.1687 44.8377 44.6581C45.6773 44.193 46.0971 43.6029 46.0971 42.8879C46.1008 42.5564 46.0084 42.231 45.8312 41.9513C45.6444 41.6861 45.4123 41.4562 45.1455 41.2723Z" fill="#63517A"/>
<path d="M111.122 30.8196C110.562 30.364 109.912 30.035 109.214 29.8548C108.454 29.6505 107.669 29.5497 106.882 29.5551C105.93 29.533 104.983 29.6821 104.083 29.9953C103.341 30.2685 102.638 30.6402 101.994 31.1005C100.68 30.0295 99.0203 29.4796 97.3296 29.5551C96.3162 29.5518 95.3077 29.6954 94.3351 29.9813C93.4894 30.2124 92.6829 30.5692 91.9423 31.0397C91.5574 31.2821 91.2257 31.6008 90.9675 31.9763C90.7476 32.343 90.639 32.7661 90.655 33.1939V44.9532C90.8276 44.9953 91.0701 45.0515 91.4013 45.1124C91.7503 45.1784 92.1049 45.2097 92.4601 45.2061H92.8472C93.2023 45.2097 93.557 45.1784 93.906 45.1124C94.2325 45.0515 94.4797 44.9953 94.6523 44.9532V41.0943V33.4655C95.0061 33.2695 95.374 33.1004 95.753 32.9597C96.2171 32.7871 96.7088 32.7014 97.2036 32.7068C97.8718 32.676 98.5303 32.876 99.0693 33.2735C99.3242 33.5016 99.5223 33.7865 99.6478 34.1052C99.7734 34.424 99.8228 34.7679 99.7923 35.1093V43.3281C99.7621 43.5942 99.7935 43.8636 99.8841 44.1155C99.9747 44.3673 100.122 44.5947 100.315 44.7799C100.805 45.0958 101.385 45.2406 101.966 45.192C102.319 45.1934 102.672 45.162 103.02 45.0983C103.346 45.0328 103.594 44.9813 103.762 44.9391V34.6363C103.761 34.3385 103.728 34.0417 103.664 33.7512C104.041 33.4267 104.47 33.1686 104.932 32.9878C105.398 32.8017 105.895 32.7063 106.397 32.7068C107.044 32.6808 107.681 32.8811 108.197 33.2735C108.444 33.5065 108.635 33.7929 108.756 34.111C108.876 34.429 108.923 34.7704 108.892 35.1093V43.3281C108.863 43.5937 108.894 43.8627 108.984 44.1143C109.073 44.3659 109.219 44.5936 109.41 44.7799C109.902 45.0949 110.484 45.2396 111.066 45.192C111.419 45.1934 111.772 45.162 112.12 45.0983C112.442 45.0328 112.689 44.9813 112.857 44.9391V34.95C112.882 34.1092 112.722 33.2732 112.391 32.5008C112.1 31.8508 111.667 31.2758 111.122 30.8196Z" fill="#63517A"/>
<path d="M162.485 30.9038C161.803 30.4896 161.067 30.1742 160.297 29.9672C159.319 29.6868 158.306 29.5495 157.289 29.5598C156.221 29.5439 155.158 29.702 154.141 30.0281C153.237 30.3156 152.405 30.7947 151.701 31.433C151.005 32.0822 150.467 32.8834 150.129 33.7746C149.744 34.8088 149.558 35.9068 149.579 37.0106C149.547 38.1793 149.734 39.3436 150.129 40.4433C150.448 41.3102 150.958 42.0931 151.622 42.7334C152.252 43.3224 153.006 43.761 153.828 44.0165C154.695 44.2831 155.598 44.4157 156.505 44.4099C157.157 44.4185 157.808 44.3445 158.441 44.1898C158.946 44.0597 159.436 43.8792 159.906 43.6513V45.0094C159.942 45.4593 159.863 45.9112 159.675 46.3213C159.487 46.7314 159.197 47.0861 158.833 47.3509C157.94 47.8812 156.911 48.1338 155.876 48.0768C155.031 48.0824 154.19 47.9544 153.385 47.6975C152.692 47.4815 152.026 47.1845 151.403 46.8124C151.153 46.9823 150.948 47.2105 150.806 47.4774C150.632 47.7956 150.545 48.1542 150.554 48.517C150.552 48.8788 150.648 49.2342 150.831 49.5458C151.014 49.8573 151.278 50.1135 151.594 50.2872C152.159 50.6069 152.769 50.8375 153.404 50.971C154.338 51.1831 155.295 51.2837 156.253 51.2707C157.239 51.2782 158.222 51.1602 159.178 50.9194C160.029 50.7135 160.831 50.3446 161.543 49.833C162.218 49.3314 162.763 48.6745 163.133 47.9176C163.539 47.0483 163.737 46.0957 163.712 45.1358V32.9597C163.729 32.5343 163.615 32.1139 163.385 31.7562C163.139 31.4197 162.834 31.1309 162.485 30.9038ZM159.84 40.4808C159.497 40.7297 159.122 40.9313 158.725 41.0802C157.77 41.4039 156.737 41.4186 155.773 41.1224C155.335 40.9792 154.94 40.7299 154.621 40.3965C154.271 40.0173 154.012 39.5622 153.865 39.0665C153.673 38.41 153.583 37.7275 153.599 37.0434C153.599 35.5682 153.949 34.4817 154.654 33.7652C155.023 33.4062 155.462 33.127 155.944 32.945C156.425 32.763 156.938 32.6819 157.452 32.7068C157.925 32.6968 158.397 32.76 158.851 32.8942C159.206 33.0072 159.548 33.1562 159.873 33.3391L159.84 40.4808Z" fill="#63517A"/>
<path d="M179.439 31.6953C178.749 30.9941 177.918 30.4495 177 30.0983C174.965 29.3617 172.738 29.3617 170.703 30.0983C169.789 30.4475 168.958 30.9851 168.264 31.6766C167.565 32.3862 167.027 33.2393 166.687 34.1773C166.309 35.2279 166.122 36.3384 166.137 37.4555C166.118 38.5912 166.305 39.721 166.687 40.7899C167.026 41.7227 167.557 42.5733 168.245 43.286C168.932 43.9816 169.759 44.5213 170.671 44.8689C172.728 45.6056 174.976 45.6056 177.033 44.8689C177.945 44.5179 178.771 43.9732 179.453 43.2719C180.141 42.5513 180.672 41.6949 181.011 40.7571C181.747 38.6341 181.747 36.3238 181.011 34.2008C180.671 33.2629 180.135 32.4088 179.439 31.6953ZM176.543 41.0053C176.209 41.3937 175.796 41.7053 175.332 41.9189C174.867 42.1325 174.363 42.243 173.852 42.243C173.341 42.243 172.836 42.1325 172.372 41.9189C171.907 41.7053 171.494 41.3937 171.16 41.0053C170.517 40.1811 170.2 39.0009 170.2 37.4649C170.2 35.9288 170.521 34.7721 171.174 33.9385C171.504 33.5479 171.914 33.234 172.376 33.0188C172.838 32.8035 173.342 32.692 173.852 32.692C174.361 32.692 174.865 32.8035 175.327 33.0188C175.79 33.234 176.2 33.5479 176.529 33.9385C177.176 34.7721 177.501 35.9476 177.504 37.4649C177.507 38.9822 177.187 40.1624 176.543 41.0053Z" fill="#63517A"/>
<path d="M196.599 31.6953C195.907 30.994 195.074 30.4495 194.155 30.0983C192.12 29.3617 189.893 29.3617 187.858 30.0983C186.945 30.4492 186.115 30.9866 185.419 31.6766C184.723 32.3876 184.187 33.2404 183.847 34.1773C183.469 35.2279 183.282 36.3384 183.297 37.4555C183.278 38.5912 183.464 39.721 183.847 40.7899C184.186 41.7227 184.717 42.5733 185.405 43.286C186.091 43.9826 186.918 44.5225 187.831 44.8689C189.886 45.6057 192.132 45.6057 194.188 44.8689C195.102 44.5192 195.93 43.9743 196.613 43.2719C197.299 42.5501 197.83 41.694 198.171 40.7571C198.901 38.633 198.901 36.3248 198.171 34.2007C197.829 33.2638 197.293 32.4101 196.599 31.6953ZM193.703 41.0053C193.369 41.3938 192.955 41.7054 192.49 41.919C192.026 42.1327 191.52 42.2432 191.009 42.2432C190.498 42.2432 189.993 42.1327 189.528 41.919C189.063 41.7054 188.65 41.3938 188.316 41.0053C187.675 40.1811 187.364 39.0009 187.383 37.4649C187.383 35.9475 187.705 34.7721 188.358 33.9385C188.686 33.548 189.096 33.2342 189.558 33.0189C190.02 32.8037 190.523 32.6922 191.033 32.6922C191.542 32.6922 192.045 32.8037 192.507 33.0189C192.969 33.2342 193.379 33.548 193.707 33.9385C194.36 34.7721 194.682 35.9475 194.682 37.4649C194.682 38.9822 194.342 40.1858 193.703 41.0053Z" fill="#63517A"/>
<path d="M214.482 24.5816C213.99 24.2667 213.408 24.122 212.826 24.1695C212.474 24.1685 212.121 24.1951 211.772 24.2491C211.52 24.2842 211.272 24.3422 211.031 24.4224V30.1452C210.593 29.9645 210.14 29.8219 209.678 29.719C209.152 29.6003 208.613 29.5422 208.074 29.5457C207.058 29.5338 206.048 29.6921 205.084 30.0141C204.184 30.3155 203.361 30.811 202.672 31.4658C201.961 32.1667 201.409 33.0133 201.054 33.9479C200.627 35.0942 200.423 36.3118 200.452 37.5351C200.452 40.2139 201.192 42.2011 202.672 43.4967C204.152 44.7924 206.152 45.4402 208.671 45.4402C209.685 45.4585 210.696 45.3146 211.665 45.0141C212.392 44.7872 213.089 44.4727 213.741 44.0774C214.101 43.8513 214.417 43.5608 214.674 43.2204C214.904 42.8784 215.022 42.472 215.009 42.059V26.0334C215.038 25.7671 215.005 25.4977 214.914 25.246C214.823 24.9943 214.675 24.767 214.482 24.5816ZM211.031 41.6188C210.311 42.0583 209.48 42.278 208.638 42.251C208.083 42.2799 207.528 42.1956 207.006 42.0032C206.484 41.8109 206.006 41.5144 205.602 41.1318C204.855 40.3825 204.482 39.1961 204.482 37.5726C204.482 35.8445 204.874 34.6035 205.648 33.8261C206.036 33.4503 206.495 33.1563 206.998 32.9617C207.502 32.767 208.038 32.6756 208.577 32.6928C209.035 32.6887 209.491 32.7518 209.93 32.8801C210.315 32.9904 210.684 33.1477 211.031 33.3484V41.6188Z" fill="#63517A"/>
<path d="M85.7155 30.8195C85.1561 30.364 84.5054 30.035 83.8078 29.8548C83.0473 29.6505 82.2629 29.5497 81.4756 29.5551C80.5241 29.533 79.5763 29.6821 78.6771 29.9953C77.9336 30.2695 77.2294 30.6411 76.5828 31.1005C75.2695 30.0283 73.6095 29.4783 71.9185 29.5551C70.9067 29.5522 69.8997 29.6957 68.9287 29.9813C68.0831 30.2124 67.2766 30.5692 66.5359 31.0397C66.151 31.2821 65.8193 31.6008 65.5611 31.9763C65.3603 32.3374 65.2649 32.748 65.2859 33.1611V43.3094C65.2567 43.5766 65.29 43.847 65.3831 44.099C65.4762 44.351 65.6266 44.5777 65.8223 44.7612C66.3095 45.0722 66.8838 45.2167 67.4595 45.1733C67.8192 45.1761 68.1784 45.1447 68.5323 45.0796L69.2879 44.9204V33.4655C69.6417 33.2695 70.0096 33.1004 70.3886 32.9597C70.8443 32.7846 71.328 32.6942 71.8159 32.6928C72.484 32.6623 73.1424 32.8622 73.6816 33.2594C73.9364 33.4876 74.1346 33.7724 74.2601 34.0912C74.3856 34.41 74.4351 34.7538 74.4046 35.0952V43.3141C74.3748 43.5797 74.406 43.8486 74.4958 44.1002C74.5855 44.3519 74.7314 44.5796 74.9223 44.7658C75.4147 45.0808 75.9962 45.2255 76.5781 45.178C76.9316 45.1793 77.2845 45.1479 77.6323 45.0843C77.9588 45.0187 78.2013 44.9672 78.3692 44.9251V34.6222C78.3705 34.3247 78.3393 34.0278 78.2759 33.7371C78.6462 33.4166 79.0671 33.1602 79.5213 32.9785C79.9873 32.7923 80.4844 32.6969 80.9859 32.6975C81.6412 32.6659 82.2867 32.8665 82.8096 33.2641C83.0566 33.4972 83.2474 33.7835 83.3678 34.1016C83.4882 34.4196 83.535 34.761 83.5046 35.0999V43.3188C83.4749 43.5844 83.506 43.8533 83.5958 44.1049C83.6855 44.3566 83.8314 44.5842 84.0223 44.7705C84.5145 45.0861 85.0962 45.2309 85.6782 45.1826C86.0316 45.1838 86.3845 45.1524 86.7323 45.089C87.0541 45.0234 87.3013 44.9719 87.4692 44.9297V34.95C87.4915 34.1094 87.3324 33.2739 87.0028 32.5008C86.7051 31.8503 86.2651 31.2756 85.7155 30.8195Z" fill="#63517A"/>
<path d="M145.311 30.9835C144.126 30.025 142.452 29.5457 140.288 29.5457C139.162 29.5332 138.039 29.6766 136.953 29.9719C136.093 30.1916 135.274 30.5489 134.527 31.0303C134.144 31.2749 133.813 31.5932 133.552 31.9669C133.327 32.3365 133.216 32.7654 133.235 33.1986V44.9578C133.408 45 133.65 45.0562 133.977 45.1171C134.324 45.183 134.677 45.2144 135.031 45.2107H135.413C135.605 45.2107 135.791 45.2107 135.968 45.2107C136.146 45.2107 136.323 45.1686 136.481 45.1405L136.621 45.1077C136.684 45.0988 136.747 45.0863 136.808 45.0702L137.237 44.9813V33.4936C137.656 33.2445 138.106 33.0539 138.576 32.9269C139.124 32.7739 139.691 32.6998 140.26 32.7068C141.01 32.6661 141.75 32.8897 142.354 33.3391C142.625 33.5899 142.835 33.8997 142.968 34.2446C143.102 34.5896 143.155 34.9607 143.123 35.3294V43.3281C143.094 43.5937 143.125 43.8627 143.215 44.1143C143.304 44.3659 143.45 44.5936 143.641 44.7799C144.134 45.0949 144.715 45.2396 145.297 45.192C145.651 45.1933 146.003 45.162 146.351 45.0983C146.678 45.0328 146.92 44.9813 147.088 44.9391V35.2029C147.088 33.3484 146.496 31.9419 145.311 30.9835Z" fill="#63517A"/>
</g>
<defs>
<clipPath id="clip0">
<rect width="215" height="75" fill="white"/>
</clipPath>
</defs>
</svg>
