<svg width="21" height="20" viewBox="0 0 21 20" fill="none" xmlns="http://www.w3.org/2000/svg">
<path d="M16.6538 7.32727H4.34615C3.85652 7.32727 3.38695 7.52266 3.04073 7.87046C2.69451 8.21825 2.5 8.68996 2.5 9.18182V12.2727C2.5 12.7646 2.69451 13.2363 3.04073 13.5841C3.38695 13.9319 3.85652 14.1273 4.34615 14.1273H6.19231V14.7455C6.19231 15.2373 6.38681 15.709 6.73303 16.0568C7.07925 16.4046 7.54883 16.6 8.03846 16.6H12.9615C13.4512 16.6 13.9207 16.4046 14.267 16.0568C14.6132 15.709 14.8077 15.2373 14.8077 14.7455V14.1273H16.6538C17.1435 14.1273 17.6131 13.9319 17.9593 13.5841C18.3055 13.2363 18.5 12.7646 18.5 12.2727V9.18182C18.5 8.68996 18.3055 8.21825 17.9593 7.87046C17.6131 7.52266 17.1435 7.32727 16.6538 7.32727ZM5.57692 8.56364C5.69863 8.56364 5.81761 8.59989 5.91881 8.66782C6.02001 8.73574 6.09889 8.83229 6.14546 8.94525C6.19204 9.05821 6.20423 9.1825 6.18048 9.30242C6.15674 9.42233 6.09813 9.53248 6.01207 9.61894C5.926 9.70539 5.81635 9.76427 5.69698 9.78812C5.57761 9.81197 5.45387 9.79973 5.34143 9.75294C5.22898 9.70615 5.13287 9.62692 5.06525 9.52526C4.99763 9.4236 4.96154 9.30408 4.96154 9.18182C4.96154 9.01787 5.02637 8.86063 5.14178 8.7447C5.25719 8.62877 5.41371 8.56364 5.57692 8.56364ZM15.4231 12.2727H13.5769V14.7455C13.5769 14.9094 13.5121 15.0666 13.3967 15.1826C13.2813 15.2985 13.1247 15.3636 12.9615 15.3636H8.03846C7.87525 15.3636 7.71873 15.2985 7.60332 15.1826C7.48791 15.0666 7.42308 14.9094 7.42308 14.7455V12.2727H5.57692C5.41371 12.2727 5.25719 12.2076 5.14178 12.0917C5.02637 11.9757 4.96154 11.8185 4.96154 11.6545C4.96154 11.4906 5.02637 11.3334 5.14178 11.2174C5.25719 11.1015 5.41371 11.0364 5.57692 11.0364H15.4231C15.5863 11.0364 15.7428 11.1015 15.8582 11.2174C15.9736 11.3334 16.0385 11.4906 16.0385 11.6545C16.0385 11.8185 15.9736 11.9757 15.8582 12.0917C15.7428 12.2076 15.5863 12.2727 15.4231 12.2727Z" fill="#63517A"/>
<path d="M7.42308 4.85455C7.42308 4.69059 7.48791 4.53336 7.60332 4.41742C7.71873 4.30149 7.87525 4.23636 8.03846 4.23636H12.9615C13.1247 4.23636 13.2813 4.30149 13.3967 4.41742C13.5121 4.53336 13.5769 4.69059 13.5769 4.85455V6.70909H14.8077V4.85455C14.8077 4.36269 14.6132 3.89098 14.267 3.54318C13.9207 3.19539 13.4512 3 12.9615 3H8.03846C7.54883 3 7.07925 3.19539 6.73303 3.54318C6.38681 3.89098 6.19231 4.36269 6.19231 4.85455V6.70909H7.42308V4.85455Z" fill="#63517A"/>
</svg>
