<svg width="20" height="20" viewBox="0 0 20 20" fill="none" xmlns="http://www.w3.org/2000/svg">
<path fill-rule="evenodd" clip-rule="evenodd" d="M7.2 3.35V6.85C7.2 7.0433 7.3567 7.2 7.55 7.2H12.45C12.6433 7.2 12.8 7.0433 12.8 6.85V3.35C12.8 3.1567 12.9567 3 13.15 3H13.9101C14.0957 3 14.2737 3.07375 14.405 3.20503L16.795 5.59498C16.9263 5.72625 17 5.9043 17 6.08995V16.3C17 16.6866 16.6866 17 16.3 17H3.7C3.3134 17 3 16.6866 3 16.3V3.7C3 3.3134 3.3134 3 3.7 3H6.85C7.0433 3 7.2 3.1567 7.2 3.35ZM10.35 3H11.05C11.2433 3 11.4 3.1567 11.4 3.35V5.45C11.4 5.6433 11.2433 5.8 11.05 5.8H10.35C10.1567 5.8 10 5.6433 10 5.45V3.35C10 3.1567 10.1567 3 10.35 3Z" fill="#6DB5D1"/>
</svg>
