<svg width="21" height="20" viewBox="0 0 21 20" fill="none" xmlns="http://www.w3.org/2000/svg">
<path d="M20.2345 5.78355C19.9225 5.06171 19.0627 4.51383 18.3209 4.56582C17.5791 4.61781 16.7212 4.32787 16.3413 3.96595C15.9614 3.60403 15.6535 2.74822 15.6815 2.00238C15.7095 1.25655 15.1356 0.420734 14.4018 0.128798C13.6679 -0.163138 12.6761 0.0588133 12.1882 0.61669C11.7004 1.17457 10.8825 1.58448 10.3627 1.60047C9.84277 1.61647 9.01495 1.22656 8.51106 0.682676C8.00717 0.138796 7.00539 -0.0551616 6.28355 0.25677C5.56171 0.568701 5.00983 1.42851 5.06182 2.17035C5.11381 2.91218 4.82387 3.77 4.46195 4.14991C4.10003 4.52983 3.24422 4.83376 2.50238 4.80977C1.76055 4.78577 0.920733 5.35765 0.628798 6.09148C0.336862 6.82532 0.558813 7.8171 1.11669 8.305C1.67457 8.79289 2.08448 9.61071 2.10047 10.1286C2.11647 10.6465 1.72856 11.4763 1.18268 11.9802C0.636796 12.4841 0.440839 13.4839 0.75677 14.2097C1.0727 14.9355 1.92851 15.4834 2.67035 15.4314C3.41218 15.3794 4.26999 15.6694 4.64991 16.0313C5.02983 16.3932 5.33776 17.245 5.30977 17.9909C5.28177 18.7367 5.85565 19.5725 6.59148 19.8644C7.32732 20.1564 8.3171 19.9344 8.80499 19.3766C9.29289 18.8187 10.1087 18.4088 10.6286 18.4008C11.1485 18.3928 11.9763 18.7787 12.4842 19.3226C12.9921 19.8664 13.9919 20.0524 14.7137 19.7405C15.4355 19.4285 15.9874 18.5727 15.9354 17.8309C15.8834 17.0891 16.1734 16.2312 16.5353 15.8513C16.8972 15.4714 17.751 15.1675 18.4969 15.1975C19.2427 15.2275 20.0785 14.6516 20.3704 13.9158C20.6624 13.1799 20.4444 12.1901 19.8826 11.6982C19.3207 11.2064 18.9108 10.3985 18.8968 9.87265C18.8828 9.34677 19.2707 8.52495 19.8186 8.02106C20.0916 7.72513 20.2755 7.35811 20.3491 6.96226C20.4226 6.56641 20.3829 6.15782 20.2345 5.78355ZM12.0363 13.5698C11.3297 13.8753 10.5483 13.9644 9.79109 13.8257C9.03386 13.687 8.33479 13.3268 7.78232 12.7907C7.22985 12.2546 6.84881 11.5667 6.68742 10.814C6.52603 10.0613 6.59153 9.27759 6.87565 8.56211C7.15977 7.84664 7.64973 7.23152 8.28354 6.79458C8.91735 6.35764 9.66652 6.11852 10.4363 6.10748C11.206 6.09643 11.9617 6.31396 12.6078 6.73254C13.2539 7.15112 13.7613 7.75193 14.0658 8.45896C14.4741 9.40518 14.4903 10.4747 14.1109 11.4328C13.7316 12.391 12.9876 13.1595 12.0423 13.5698H12.0363Z" fill="#9689A6"/>
</svg>
