<?xml version="1.0" encoding="utf-8"?>
<!-- Generator: Adobe Illustrator 21.1.0, SVG Export Plug-In . SVG Version: 6.00 Build 0)  -->
<svg version="1.1" id="Layer_1" xmlns="http://www.w3.org/2000/svg" xmlns:xlink="http://www.w3.org/1999/xlink" x="0px" y="0px"
	 viewBox="0 0 43.6 40" style="enable-background:new 0 0 43.6 40;" xml:space="preserve">
<style type="text/css">
	.st0{fill:none;}
	.st1{filter:url(#Adobe_OpacityMaskFilter);}
	.st2{fill:#FFFFFF;}
	.st3{mask:url(#mask-2);}
	.st4{fill:#EDBC33;}
	.st5{fill:#9A83B7;}
	.st6{fill:#71B078;}
	.st7{fill:#D3584B;}
	.st8{fill:#6DB5D1;}
	.st9{fill:#315B9C;}
</style>
<g>
	<g>
		<rect id="rect-1_1_" class="st0" width="43.6" height="40"/>
	</g>
	<defs>
		<filter id="Adobe_OpacityMaskFilter" filterUnits="userSpaceOnUse" x="0" y="0" width="43.6" height="40">
			<feColorMatrix  type="matrix" values="1 0 0 0 0  0 1 0 0 0  0 0 1 0 0  0 0 0 1 0"/>
		</filter>
	</defs>
	<mask maskUnits="userSpaceOnUse" x="0" y="0" width="43.6" height="40" id="mask-2">
		<rect class="st1" width="43.6" height="40"/>
		<g>
			<rect id="rect-1" class="st2" width="43.6" height="40"/>
		</g>
	</mask>
	<g class="st3">
		<path class="st4" d="M22.4,6.8c0-3.7,3-6.8,6.8-6.8c3.7,0,6.8,3,6.8,6.8c0,3.7-3,6.8-6.8,6.8S22.4,10.5,22.4,6.8z M26.7,11.4
			c0,0,4.8-1.3,5.8-3.2c0.9-1.9,0.1-4.2-1.8-5.1c-1.9-0.9-4.1-0.1-5.1,1.8C24.7,6.8,26.7,11.4,26.7,11.4z"/>
		<path class="st5" d="M7.1,6.7c0-3.7,3-6.7,6.7-6.7c3.7,0,6.8,3,6.7,6.7c0,3.7-3,6.7-6.7,6.7S7.1,10.5,7.1,6.7z M10.7,8.6
			c1,1.8,5.9,2.7,5.9,2.7s1.6-4.7,0.6-6.4c-1-1.8-3.3-2.4-5.1-1.3S9.6,6.9,10.7,8.6z"/>
		<path class="st6" d="M7.1,33c0-3,2.7-6.4,6.6-6.4s6.7,2.7,6.7,6.6S17.5,40,13.7,40S7.1,36.9,7.1,33z M11.8,36.7
			c1.8,1,4.1,0.4,5.1-1.5s-0.7-6.4-0.7-6.4s-4.8,1-5.8,2.8C9.3,33.4,10,35.7,11.8,36.7z"/>
		<path class="st7" d="M22.6,33.3c0-3.7,3-6.6,6.6-6.6c3.7,0,6.6,3,6.6,6.6c0,3.7-3,6.6-6.6,6.6C25.6,40,22.6,37,22.6,33.3z
			 M26.3,35.2c1,1.7,3.2,2.3,5,1.3c1.7-1,2.3-3.3,1.3-5c-1-1.7-5.7-2.6-5.7-2.6S25.3,33.5,26.3,35.2z"/>
		<path class="st8" d="M30,20c0-3.7,3-6.8,6.8-6.8s6.8,3,6.8,6.8s-3,6.8-6.8,6.8S30,23.8,30,20z M31.6,20.3c0,0,3.2,3.7,5.3,3.7
			c2.1,0,3.7-1.7,3.7-3.7c0-2.1-1.7-3.7-3.7-3.7C34.9,16.5,31.6,20.3,31.6,20.3z"/>
		<path class="st9" d="M0,20c0-3.7,3-6.7,6.7-6.7s6.7,3,6.7,6.7c0,3.7-3,6.7-6.7,6.7S0,23.6,0,20z M3,19.8c0,2,1.6,3.7,3.6,3.8
			c2,0,5.2-3.7,5.2-3.7s-3.2-3.7-5.2-3.7C4.7,16.2,3.1,17.8,3,19.8z"/>
	</g>
</g>
</svg>
