<svg width="20" height="20" viewBox="0 0 20 20" fill="none" xmlns="http://www.w3.org/2000/svg">
<path d="M20 3.63636C20 1.62818 18.3718 0 16.3636 0H14.3536C14.9391 0.255455 15.4991 0.559091 16.0254 0.909091H16.3636C17.8672 0.909091 19.0909 2.13273 19.0909 3.63636V3.97455C19.4409 4.50091 19.7445 5.06 20 5.64636V3.63636Z" fill="#9689A6"/>
<path d="M3.63636 0.909091H3.97455C4.50091 0.559091 5.06 0.255455 5.64636 0H3.63636C1.62818 0 0 1.62818 0 3.63636V5.64636C0.255455 5.06091 0.559091 4.50091 0.909091 3.97455V3.63636C0.909091 2.13273 2.13273 0.909091 3.63636 0.909091Z" fill="#9689A6"/>
<path d="M0 16.3636C0 18.3718 1.62818 20 3.63636 20H5.64636C5.06091 19.7445 4.50091 19.4409 3.97455 19.0909H3.63636C2.13273 19.0909 0.909091 17.8672 0.909091 16.3636V16.0254C0.559091 15.4982 0.255455 14.9391 0 14.3536V16.3636Z" fill="#9689A6"/>
<path d="M20 16.3636V14.3536C19.7445 14.9391 19.4409 15.4982 19.0909 16.0254V16.3636C19.0909 17.8672 17.8672 19.0909 16.3636 19.0909H16.0254C15.4991 19.4409 14.94 19.7445 14.3536 20H16.3636C18.3718 20 20 18.3718 20 16.3636Z" fill="#9689A6"/>
<path d="M13.1553 14.441C12.2635 15.0765 11.1762 15.4547 9.99986 15.4547C8.82349 15.4547 7.73622 15.0765 6.8444 14.441L3.60259 17.6829C5.33622 19.1283 7.56531 20.0001 9.99986 20.0001C12.4344 20.0001 14.6626 19.1292 16.3971 17.6829L13.1553 14.441Z" fill="#9689A6"/>
<path d="M2.31727 16.3971L2.31909 16.3953C2.31727 16.3935 2.31545 16.3917 2.31364 16.3899L5.55545 13.148C4.92182 12.2571 4.54545 11.1735 4.54545 9.99986C4.54545 8.82349 4.92364 7.73622 5.55909 6.8444L2.31727 3.60259C0.871818 5.33622 0 7.56531 0 9.99986C0 12.4335 0.871818 14.6626 2.31727 16.3971Z" fill="#9689A6"/>
<path d="M17.6824 3.60259L14.4406 6.8444C15.076 7.73622 15.4542 8.82349 15.4542 9.99986C15.4542 11.1762 15.076 12.2635 14.4406 13.1553L17.6833 16.398C19.1278 14.6635 19.9997 12.4344 19.9997 9.99986C19.9997 7.56622 19.1278 5.33713 17.6824 3.60259Z" fill="#9689A6"/>
<path d="M9.99986 4.54545C11.1735 4.54545 12.258 4.92273 13.148 5.55545L16.3899 2.31273C16.3917 2.31455 16.3935 2.31636 16.3962 2.31818L16.3971 2.31727C14.6635 0.871818 12.4344 0 9.99986 0C7.56531 0 5.33713 0.870909 3.60259 2.31636L6.8444 5.55818C7.73622 4.92364 8.82349 4.54545 9.99986 4.54545Z" fill="#9689A6"/>
</svg>
