<svg width="20" height="20" viewBox="0 0 20 20" fill="none" xmlns="http://www.w3.org/2000/svg">
<path d="M7.02476 7.06134L8.85711 5.13364V13.6394C8.85711 14.3151 9.36715 14.8517 10.0094 14.8517C10.6517 14.8517 11.1617 14.3151 11.1617 13.6394V5.11376L12.9941 7.04147C13.2207 7.27995 13.5041 7.39919 13.8063 7.39919C14.1086 7.39919 14.3919 7.27995 14.6186 7.04147C15.072 6.56451 15.072 5.80933 14.6186 5.33237L10.8217 1.35772C10.3683 0.880761 9.6505 0.880761 9.19713 1.35772L5.4002 5.35224C4.94684 5.8292 4.94684 6.58438 5.4002 7.06134C5.85357 7.5383 6.5714 7.5383 7.02476 7.06134Z" fill="#6DB5D1"/>
<path d="M16.8477 12.0841C16.2054 12.0841 15.6954 12.6207 15.6954 13.2964V16.5755L4.3046 16.5755L4.30461 13.2964C4.30461 12.6207 3.79457 12.0841 3.1523 12.0841C2.51004 12.0841 2 12.6207 2 13.2964L2 17.7877C2 18.4634 2.51003 19 3.1523 19L16.8477 19C17.49 19 18 18.4634 18 17.7877V13.2964C18 12.6207 17.49 12.0841 16.8477 12.0841Z" fill="#6DB5D1"/>
</svg>
