<svg width="40" height="40" viewBox="0 0 40 40" fill="none" xmlns="http://www.w3.org/2000/svg">
<g clip-path="url(#clip0)">
<path d="M19.9998 20.7408C22.9658 20.7408 25.3702 18.3363 25.3702 15.3704C25.3702 12.4044 22.9658 10 19.9998 10C17.0339 10 14.6295 12.4044 14.6295 15.3704C14.6295 18.3363 17.0339 20.7408 19.9998 20.7408ZM22.5449 17.4959C22.3006 18.3037 21.2541 18.9109 19.9998 18.9109C18.7456 18.9109 17.6991 18.3037 17.4548 17.4959H22.5449V17.4959ZM29.0739 26.2963V28.0665C29.0739 28.3289 28.8807 28.6338 28.641 28.7405C27.712 29.1539 25.1779 30 19.9998 30C14.8217 30 12.2877 29.1539 11.3587 28.7405C11.119 28.6338 10.9258 28.3289 10.9258 28.0665V26.2963C10.9258 23.6436 12.9455 21.4429 15.5227 21.1482C15.601 21.1392 15.7171 21.1727 15.781 21.2189C16.9692 22.0792 18.424 22.5926 19.9998 22.5926C21.5757 22.5926 23.0305 22.0792 24.2187 21.2189C24.2826 21.1727 24.3987 21.1392 24.477 21.1482C27.0541 21.4429 29.0739 23.6436 29.0739 26.2963Z" fill="#9A83B7"/>
</g>
<defs>
<clipPath id="clip0">
<rect width="20" height="20" fill="white" transform="translate(10 10)"/>
</clipPath>
</defs>
</svg>
