<svg width="20" height="20" viewBox="0 0 20 20" fill="none" xmlns="http://www.w3.org/2000/svg">
<path d="M10 4.9768C11.6577 4.98228 13.2789 5.45845 14.6706 6.34861C16.0623 7.23878 17.1659 8.50546 17.85 9.99787C17.1689 11.492 16.0658 12.76 14.6733 13.6495C13.2808 14.539 11.658 15.0121 10 15.0121C8.34198 15.0121 6.71923 14.539 5.3267 13.6495C3.93417 12.76 2.83109 11.492 2.15 9.99787C2.83415 8.50546 3.93775 7.23878 5.32945 6.34861C6.72115 5.45845 8.34232 4.98228 10 4.9768ZM10 3C7.806 3.00258 5.66666 3.67673 3.87601 4.9298C2.08537 6.18287 0.731333 7.95334 0 9.99787C0.728083 12.0448 2.08118 13.8178 3.87245 15.0721C5.66371 16.3264 7.80478 17 10 17C12.1952 17 14.3363 16.3264 16.1276 15.0721C17.9188 13.8178 19.2719 12.0448 20 9.99787C19.2687 7.95334 17.9146 6.18287 16.124 4.9298C14.3333 3.67673 12.194 3.00258 10 3Z" fill="#63517A"/>
<path d="M12.21 9.12807C11.8581 9.12549 11.5213 8.98616 11.2724 8.74019C11.0236 8.49422 10.8826 8.16135 10.88 7.8135C10.8868 7.62089 10.937 7.4322 11.027 7.2612C11.1169 7.09021 11.2444 6.94122 11.4 6.8251C10.9618 6.62009 10.4847 6.50893 10 6.49893C9.29985 6.49893 8.61543 6.70414 8.03328 7.08861C7.45113 7.47308 6.9974 8.01954 6.72947 8.65888C6.46153 9.29823 6.39143 10.0017 6.52802 10.6805C6.66461 11.3592 7.00176 11.9826 7.49684 12.472C7.99192 12.9613 8.62269 13.2946 9.30938 13.4296C9.99607 13.5646 10.7078 13.4953 11.3547 13.2305C12.0015 12.9656 12.5544 12.5172 12.9434 11.9418C13.3324 11.3664 13.54 10.6899 13.54 9.99787C13.5424 9.52163 13.4436 9.0502 13.25 8.61411C13.1284 8.77312 12.9712 8.90224 12.7909 8.99139C12.6105 9.08054 12.4117 9.12731 12.21 9.12807Z" fill="#63517A"/>
</svg>
