<svg width="20" height="20" viewBox="0 0 20 20" fill="none" xmlns="http://www.w3.org/2000/svg">
<g clip-path="url(#clip0)">
<path d="M11.476 5.96884C13.7535 4.60137 14.9809 6.52883 13.8135 8.70754C12.6435 10.895 11.5698 12.3212 11.0135 12.3212C10.4673 12.3212 10.0348 10.8537 9.3948 8.30629C8.73856 5.6676 8.73856 0.910203 5.99362 1.45019C3.39868 1.96268 0 6.02509 0 6.02509L0.807483 7.08882C0.807483 7.08882 2.48245 5.7676 3.03993 6.42509C3.60492 7.08882 5.74363 15.0586 6.45111 16.5324C7.0686 17.8236 8.78231 19.5273 10.6548 18.3123C12.5447 17.0899 18.7833 11.7625 19.9008 5.45886C21.0158 -0.833509 12.381 0.483963 11.476 5.96884Z" fill="#493D5A"/>
</g>
<defs>
<clipPath id="clip0">
<rect width="20" height="20" fill="white"/>
</clipPath>
</defs>
</svg>
