<svg width="24" height="24" viewBox="0 0 24 24" fill="none" xmlns="http://www.w3.org/2000/svg">
<path d="M24 6.65218H0V16.5652H24V6.65218Z" fill="#E6E6E6"/>
<path fill-rule="evenodd" clip-rule="evenodd" d="M1.56522 20.7391H22.4348C23.2993 20.7391 24 20.0384 24 19.1739V16.5652H0V19.1739C0 20.0384 0.700696 20.7391 1.56522 20.7391Z" fill="#E79800"/>
<path fill-rule="evenodd" clip-rule="evenodd" d="M22.4348 3H1.56522C0.700696 3 0 3.7007 0 4.56522V7.17391H24V4.56522C24 3.7007 23.2993 3 22.4348 3Z" fill="#1A1876"/>
<path fill-rule="evenodd" clip-rule="evenodd" d="M9.51547 14.3739H10.8767L11.7287 9.37774H10.367L9.51547 14.3739Z" fill="#1A1876"/>
<path fill-rule="evenodd" clip-rule="evenodd" d="M14.4746 11.3838C13.9988 11.1527 13.7071 10.9983 13.7103 10.7645C13.7103 10.5569 13.957 10.3346 14.4903 10.3346C14.9264 10.3278 15.2781 10.4165 15.6318 10.5835L15.8165 9.50035C15.5468 9.39913 15.1242 9.29061 14.5962 9.29061C13.2506 9.29061 12.3026 9.96835 12.2948 10.9393C12.2869 11.6572 12.9715 12.0579 13.488 12.2969C14.0181 12.5416 14.1965 12.6981 14.1939 12.9167C14.1908 13.2517 13.7708 13.4045 13.3789 13.4045C12.7748 13.4045 12.4701 13.3111 11.9217 13.0628L11.7308 14.1814C12.049 14.3207 12.637 14.4417 13.248 14.448C14.6796 14.448 15.6089 13.7781 15.6193 12.7409C15.6229 12.1727 15.2603 11.7402 14.4746 11.3838Z" fill="#1A1876"/>
<path d="M19.308 9.38243H18.2556C17.9296 9.38243 17.6859 9.47165 17.5424 9.79669L15.5202 14.3755H16.9503C16.9503 14.3755 17.184 13.7598 17.2372 13.6247C17.3937 13.6247 18.7826 13.6268 18.9814 13.6268C19.0221 13.8016 19.1473 14.3755 19.1473 14.3755H20.411L19.308 9.38243ZM17.629 12.6031C17.6854 12.4591 18.241 11.0322 18.3522 10.7296C18.5363 11.591 18.3569 10.7551 18.7597 12.6031H17.629Z" fill="#1A1876"/>
<path fill-rule="evenodd" clip-rule="evenodd" d="M8.37339 9.3814L7.03983 12.7884L6.89792 12.096L6.42053 9.79983C6.33809 9.48366 6.09913 9.38922 5.80331 9.37827H3.60679L3.58957 9.48209C4.12383 9.61148 4.60122 9.79827 5.02018 10.0299L6.23113 14.3692L7.67218 14.3677L9.816 9.38087H8.37339V9.3814Z" fill="#1A1876"/>
</svg>
