<svg width="48" height="36" viewBox="0 0 48 36" fill="none" xmlns="http://www.w3.org/2000/svg">
<path d="M19.1529 10.799L16.7219 25.065H20.6099L23.0429 10.799H19.1529Z" fill="white"/>
<path d="M13.4621 10.815L9.65406 20.544L9.24806 19.075C8.49706 17.305 6.36506 14.763 3.86206 13.161L7.34406 25.058L11.4581 25.051L17.5811 10.812L13.4621 10.815Z" fill="white"/>
<path d="M7.772 11.836C7.546 10.967 6.891 10.708 6.078 10.677H0.05L0 10.961C4.691 12.099 7.795 14.841 9.083 18.138L7.772 11.836Z" fill="white"/>
<path d="M30.923 13.534C32.195 13.514 33.117 13.792 33.833 14.08L34.184 14.245L34.71 11.153C33.94 10.864 32.733 10.554 31.227 10.554C27.385 10.554 24.677 12.489 24.656 15.262C24.631 17.311 26.585 18.455 28.061 19.138C29.576 19.838 30.084 20.283 30.077 20.908C30.065 21.863 28.869 22.301 27.752 22.301C26.195 22.301 25.368 22.086 24.091 21.554L23.59 21.326L23.043 24.519C23.953 24.918 25.632 25.261 27.375 25.279C31.462 25.279 34.118 23.367 34.146 20.404C34.163 18.783 33.126 17.546 30.879 16.531C29.519 15.869 28.687 15.429 28.695 14.761C28.695 14.168 29.401 13.534 30.923 13.534Z" fill="white"/>
<path d="M44.688 10.815H41.684C40.751 10.815 40.057 11.069 39.647 11.999L33.874 25.073H37.957C37.957 25.073 38.623 23.315 38.774 22.93C39.221 22.93 43.188 22.936 43.753 22.936C43.869 23.434 44.227 25.073 44.227 25.073H47.834L44.688 10.815ZM39.893 20.01C40.213 19.191 41.442 16.023 41.442 16.023C41.421 16.062 41.759 15.198 41.96 14.661L42.222 15.891C42.222 15.891 42.967 19.297 43.123 20.01H39.893Z" fill="white"/>
</svg>
